<svg xmlns="http://www.w3.org/2000/svg" width="500" height="200" viewBox="0 0 500 200">
  <defs>
    <style>
      .cls-1 {
        fill: #181324;
      }

      .cls-1, .cls-2 {
        fill-rule: evenodd;
      }

      .cls-2 {
        fill: #d43724;
      }
    </style>
  </defs>
  <path id="Color_Fill_2" data-name="Color Fill 2" class="cls-1" d="M88,14h27v4a21.512,21.512,0,0,0,7,1v6h-1c-1.549-1.049-4.085-1.031-7-1V20c-8.1-.131-19.624-1.174-26,1V14Zm97,0h20v7h-1c-3.406-2.325-15.441-1.3-19,0V14Zm216,5h40v5c-12.023-.138-29.944-2.389-40,1V19Zm0,43h21v6c-6.72-.127-15.916-0.746-21,1V62ZM294,72h8v4a18.313,18.313,0,0,0,6,1v4a15.7,15.7,0,0,0,5,1v4a21.512,21.512,0,0,0,7,1v4a21.512,21.512,0,0,0,7,1v4h1v1c1.754-.631.971-0.193,2-1,0.8-1.18.773-1.681,1-4h6a15.705,15.705,0,0,0,1-5h6a15.705,15.705,0,0,0,1-5h5a15.705,15.705,0,0,0,1-5h4a15.705,15.705,0,0,0,1-5h8v6h-7v5h-5v5h-6v5h-7v5h-7v4h-6V98h-7V93h-7V88h-5V83h-6V78h-7V72ZM185,77h20v7h-1c-3.406-2.325-15.441-1.3-19,0V77ZM133,87h8v6h-7v5h-7v4H62V97h63a15.705,15.705,0,0,0,1-5h6A15.705,15.705,0,0,0,133,87Zm26,10h27v5H159V97Zm45,0h20v5H204V97Zm38,0h32v5H242V97Zm142,0h57v5H384V97ZM18,126H62v6c-13.15-.14-32.884-2.737-44,1v-7Zm140,0h13v7h-1c-2.637-1.853-9.306-1.008-12,0v-7Zm65,0h14v7h-1c-2.742-1.92-10.19-1.048-13,0v-7Zm63,0h22v7h-1c-3.634-2.464-17.179-1.382-21,0v-7Zm104,0h13v7h-1c-2.637-1.853-9.306-1.008-12,0v-7ZM223,165h14v7h-1c-2.742-1.92-10.19-1.048-13,0v-7Zm230,0h9v4a18.324,18.324,0,0,0,6,1v7h-1c-1.418-.961-3.273-0.976-6-1v-5a23.654,23.654,0,0,0-8,1v-7Zm-295,5h13v7h-1c-2.637-1.853-9.306-1.008-12,0v-7Zm232,0h13v7h-1c-2.637-1.853-9.306-1.008-12,0v-7Zm77,9h8v5h5v10h20v6H474V185h-7v-6ZM0,189H7v5H62v6H6v-5H0v-6Zm318,0h8v6h-7v5H269v-6h48A15.7,15.7,0,0,0,318,189Zm-179,5h20v6H139v-6Zm31,0h20v6H170v-6Zm34,0h20v6H204v-6Zm32,0h20v6H236v-6Zm103,0h18v6H339v-6Zm32,0h20v6H371v-6Zm31,0h20v6H402v-6Zm34,0h18v6H436v-6ZM74,195h50v5H74v-5Z"/>
  <path id="Color_Fill_1" data-name="Color Fill 1" class="cls-2" d="M61,0h66V5h7v5h7V88h-7v5h-7v5H62C62.043,65.159,61.05,31.394,61,0Zm98,0h58V5h7V54h-7v5h7V98H204V78H186V98H159V0Zm83,0h32V98H242V0Zm52,0h25V68h7v5h6V68h7V0h25V74h-6v4l-6,1v4h-6v5h-7v5h-7v5h-6V93h-7V88h-7V83h-5V78h-6c-1.134-4.138-1.751-4.062-7-4V0Zm90,0h57V21H403a161.771,161.771,0,0,0-1,18h20V64H403q-0.5,7-1,14h39V98H384V0ZM89,15V83h25V78h7V20h-7V15H89Zm98,1c-0.868,12.8-.992,28.66-1,43h18c0.068-14.336-.069-30.206-1-43H187ZM6,112H62v15H19v53H44V161H31V146H62v49H6v-5H0V117H6v-5Zm133,0h51v83H170V171H159v24H139V112Zm65,0h45v5h7v44h-7v5h7v29H236V166H224v29H204V112Zm65,0h50v5h7v73h-7v5H269V112Zm70,0h18v83H339V112Zm32,0h51v83H402V171H391v24H371V112Zm65,0h18v10h7v5h6v10h7v9h5V112h21v84H478V186h-4a15.7,15.7,0,0,1-1-5h-6V171h-6v-5h-7v30c-5.5-.369-11.338-0.988-18-1V112ZM74,113H92v68h13V113h19v83H74V113Zm85,14v29h11V127H159Zm65,0v24h12V127H224Zm63,0v53h20V127H287Zm104,0v29h11V127H391Z"/>
</svg>
