<svg xmlns="http://www.w3.org/2000/svg" width="1034" height="1251" viewBox="0 0 1034 1251">
  <defs>
    <style>
      .cls-1 {
        fill: #468c37;
      }

      .cls-1, .cls-2 {
        fill-rule: evenodd;
      }

      .cls-2 {
        fill: #108c43;
      }
    </style>
  </defs>
  <path id="Color_Fill_2" data-name="Color Fill 2" class="cls-1" d="M847.343,177.744c-7.1,13.723-11.3,25.354-15.522,37.756-2.087,6.127-9.958,19.778-12.474,20.547,0.444,6.317-4.038,10.638-5.543,15.545-3.48,11.346-19.954,28.322-26.891,38.6l-0.554,4.44c-1.222,3.011-3.358,2.531-4.713,5.277-3.776,7.649-8.771,13.862-10.811,21.656-0.181.69-10.159,12.7-11.09,13.052l1.664,1.109c-0.419,3.95-7.22,8.554-8.871,13.328-4.239,12.262-14.174,23.5-19.682,34.984-4.218,8.8-12.964,8.042-17.745,12.225-2.555,2.235-7.953,18.739-10.532,26.651-5.9,4.145-17.9,13.2-20.517,20-4.59,3.68-25.517,18.756-27.726,23.611-1.3,2.864-2.444,12.42-2.77,14.989l-8.6,7.5c-3.464,4.579-7.9,10.48-14.418,14.442-0.585.356,1.306,2.5-.553,4.441-1.78,1.86-5.369,2.265-7.21,3.614-3.018,2.21-3.139,4.731-4.435,6.664-2.008,2.992-7.376,3.825-9.705,5.558-3.59,2.672-1.682,4.1-4.436,6.664a156.007,156.007,0,0,1-15.25,10.281c-9.5,4.73-23.633,5.448-31.888,13.624-4.482,1.928-5.608,10.466-6.651,17.211q1.246,0.832,2.5,1.663c-2.092,5.061-1.478,15.827-6.929,19.433-2.422,1.6-9.271,3.421-11.923,5.282l-1.386,3.886c-2.92,2.541-16.088,10.175-19.964,11.95-2.764,1.266-7.734,8.513-8.318,8.887-3.925,2.519-10.887,3.619-14.7,5.84-3.974,2.318-9.955,9.195-16.081,13.334-14.583,9.853-26.746,17.106-42.978,26.676q-0.138,1.11-.277,2.221c-4.366,2.452-9.967,5.236-14.419,7.227-0.571.255,0.135,2.687-1.385,3.886-9.971,7.862-24.805,14.628-33.273,21.118-10,7.664-1.7,28.359-17.74,37.48-14.1,8.018-29.533,17.76-46.028,29.454-2.864,2.031-.909,4.185-4.436,6.665-1.918,1.348-5.544.907-7.487,2.226-3.661,2.485-1.706,4.168-4.435,6.664-2.4,2.193-7.44,3.8-9.7,5.558-1.817,1.411-.924,2.712-1.386,3.886-4.193,3.329-9.429,9.075-12.754,11.944-7.805,6.737-18.98,14.942-27.449,21.391l-7.763,8.055c-1.47.609-3.817-.416-5.546,1.114-3.142,2.782-8.354,13.425-10.535,15.827-5.7,6.281-8.579,6.414-12.476,13.331-2.32-.465-1.679-0.081-3.6,0-0.476-1.221-.453-1.025-1.942-2.5,9.951-17.427,27.107-30.368,38.814-47.487,2.206-3.227,1.349-7.975,1.662-9.715,0.5-2.785,3.859-12.473,5.266-13.325-0.316-11.95-.3-29.383,1.377-43.573l-2.5-1.663c3.6-8.736-.213-27.538-2.78-35.521-3.159-9.82-12.923-14.918-6.107-26.915,0.387-6.362,13.437-14.935,18.853-21.107L260.93,663.6c-6.513-7.631-26.926.71-40.211-2.744-3.41-.886-18.918-12.109-23.3-19.13-1.3-2.086-.936-5.857-3.052-8.046l-4.714-1.939c-11.533-17.389-10.151-38.68-6.39-53.557,1.821-7.2,7.886-17.872,6.374-22.207-2.2.811-24.155,1.75-26.346-1.922l-2.219-3.883c2.658-2.8,2.525-5.957,3.048-9.994,1.81,0.447.916,0.378,2.219,0.276-1.923-4.5,1.021-5.036-1.111-9.157-4.147,5.745-6.13,5.246-11.923,8.89-8.135-6.985-15.35-10.3-22.188-17.189-2.465-2.484-7.174.864-9.152-2.49-7.059.131-15.176,2.5-21.907,2.237-0.846-.033-4.07-2.463-6.934-2.215-6.077.529-22.453,7.11-28.008,4.186,5.279-10.248,20.822-25.84,29.666-31.939,4.333-2.988,7.769-12.482,13.308-16.385a210.357,210.357,0,0,1,29.669-17.507c6.681-3.187,41.445-4.963,45.2,2.461,25.435-1.433,55.959,24.237,78.212,48.505,2.788,3.04,11.838,7.532,15.255,11.366,0.493,0.554.541,3.76,0.833,4.163l3.883,1.384c11.568,11.975,26.821,28.2,32.731,41.048,1.8,3.9,1.51,9.736,2.776,13.874,1.176,3.841,8.389,16.867,6.106,23.307l2.5,1.663c-3.125,10.634,2.934,28.135,2.782,39.129-0.052,3.7-2.546,6.443-2.772,7.773-1.249,7.364-.941,18.561-0.549,26.087,0.331,6.355-4.8,22.411-5.541,26.37-1.431,7.659-10.347,21.485-7.481,27.48,8.225-14.384,20.524-27.158,26.059-39.151,3.737-8.1,7.6-19.542,8.313-26.927,1.637-2.015,4.672-5.117,4.713-8.884,0.032-3.009-1.064-9.121-.28-12.211,0.325-1.279,2.427-2.62,2.5-5.552,0.045-1.966-1.153-5.7-.834-7.77,0.7-4.563,3.313-6.341,3.6-10.827,0.086-1.334-1.907-3.114-1.665-4.716,1.644-10.89,5.761-19.5,6.926-30.256,0.3-2.727-1.6-7.9-1.388-10.545,0.945-12.042,5.246-23.216,2.488-34.415-2.154-8.748-13.98-13.853-9.156-24.137,3.487-1.309,7.724-5.376,10.536-8.612l-1.664-1.108c-3.889.473-7.591-1.575-12.758-6.1,2.228-7.719.746-16.045,0.827-24.7,0.024-2.638,1-4.68,2.494-5.553a224.515,224.515,0,0,1,.825-31.916c-2.107-1.146-2.018-.974-3.6-3.6,4.411-3.584,12.087-6.83,18.023-10.838l-4.993-3.327c-5.808.214-12.159-5.667-13.59-10.257-0.231-9.628,3.695-18,4.154-26.091,0.158-2.79-1.946-6.843-1.943-9.712,0.013-13.439,1.725-22.483,2.211-35.8,0.268-7.361-2.5-21.153,3.6-25.257,2.446-1.338.021-.806,2.773-0.558,2.03,0.019,10.262,4.433,10.262,4.433l2.5-1.945c2.681,0.537,6.456,4.11,9.707,5.265,0,0,3.5,1.346,3.883,1.385l1.109-1.666c4.914,0.578,8.437,5.906,12.2,6.928,0.964,0.262,2.687-1.4,3.328-1.39,8.042,5.683,26.041,19.975,33.007,31.611,3.538,5.912,2.447,13.8,6.937,20.254,3.486-5.521,4.041-6.373,8.04-10.275l4.16,2.772c-4.022,11.744-2.5,27.986-2.21,39.41,0.131,5.1-2.6,5.943-2.771,11.381-0.279,9.134,1.368,20.359.838,29.417-0.152,2.6-1.963,9.154-3.88,9.439,2.966,12.168-1.268,24.636-.824,39.131,0.078,2.54,2.153,4.722,2.22,7.492l0.832,0.554,0.555-.833c5.757-2,10.819-6.435,16.359-8.338,1.11,1.5.7,0.7,1.11,1.941,1.842,8.149-7.406,16.746-10.532,26.651-4.441,14.071-13.722,30.169-23.841,39.427l-3.6,7.219c-2.767,2.421-6.284,3.133-9.428,6.945l1.665,1.109a13.194,13.194,0,0,1,7.21-.006c-0.931,2.722.01,6.059-.553,8.049l-4.713,5.277,1.664,1.109q0.554-.834,1.109-1.666c4.367-1.87,25.509-25.253,27.17-30,17.291-15.087,28.282-29.242,44.36-44.994,2.5-2.446-.017-2.612.554-4.441,7.172-5.615,11.546-10.033,17.19-15,3.526-3.1.363-4.778,3.049-6.385,2.446-1.338.021-.805,2.773-0.557,3.544,0.242,8.62,5.183,10.817,7.207l1.663-2.5c-2.7-16.458,13-28.343,24.673-38.873,0.776-.7,1.5-5.395,3.6-7.219,6.085-5.263,15.072-15.02,20.516-20,6.463-5.908,13.116-17.7,18.3-20.274,1.564-.013,2.548.623,4.715,1.939,0.738,3.625,2.094,7.154,4.161,6.38,5.275-5.989-1.285-18.359,8.313-26.926,14.986-13.376,33.069-27.322,47.967-41.389,0.829-.783-0.269-2.3,1.385-3.887,2.267-2.172,7.226-5.007,9.427-6.945l1.386-3.887,1.664,1.109c9.332-4.765,16.829-18,19.684-24.16-1.52-1.461-1.467-1.269-1.941-2.5-0.618-5.061-.247-11.59,3.046-17.208l-0.832-.555,0.555-.833,0.832,0.555c5.567-2.6,12.056,1.773,17.193-.569,3.175-1.478,2.658-3.465,4.713-5.277,3.449-3.04,8.907-5.042,12.2-7.5,1.593-1.19-.64-1.2-1.11-1.942,2.1-4.089,8.352-6.865,11.09-9.444L746.7,265.8c6.862-6.676,16.874-13.693,24.122-20,10.453-9.1,18.105-17.48,23.566-26.384,1.964-3.2,8.284-5.067,10.814-7.224,14.22-12.124,25.112-34.113,40.2-36.943C845.877,176.469,845.855,176.273,847.343,177.744Zm84.173,698.184c-7.23,9.648-6,12.988-8.037,21.1,1.809,0.447.915,0.378,2.218,0.276,3.8-1.548,7.9-6.26,11.091-9.445a10.922,10.922,0,0,0,3.605,0c6.285,7.824,8.367,23.329,12.208,32.183,2.083,4.8,8.881,16.7,10.543,23.858,0.853,3.671-.85,8.669.28,12.211,1.161,3.638,3.717,6.286,4.162,9.988,1.983,16.5-1.969,36.935-.544,51.345,0.389,3.93-2.282,5.23-2.771,7.77-0.594,3.09.919,8.44,0.834,11.38-0.23,8-4.95,18.6-3.877,23.87,0.387,2.58,1.94,4.14,2.774,6.66-0.832-.56-1.664-1.11-2.5-1.67-3.586,8.31-.649,14.48-4.155,22.49-2.361-.23-2.319.18-5.269-1.11-0.848-3.31-8.683-15.91-11.929-19.97-1.016-.28-2.033-0.56-3.05-0.83-5.332-7.48-12.858-18.86-18.308-26.63-1.017-.28-2.034-0.55-3.051-0.83-7.739-8.81-18-15.58-24.686-22.46-5.79-5.95-21.177-12.8-19.97-20.521,0.105-3.413,3.942-8.886,4.434-10.272q-0.416-.278-0.832-0.554c-3.347,4.224-12.62,8.376-18.577,11.67-8.817-9.455-19.273-26.065-27.739-37.721-5.916-8.144-15-11.472-20.248-18.3a54.786,54.786,0,0,1-9.152-2.491l-1.942-2.5c-1.776-.5-5.815-0.2-8.874-1.1-3.633-1.073-7.406-6.549-12.2-6.928-8.016-.634-21.263-2.123-30.229-6.915,0.347-2.778,4.237-13.709,3.325-15.821-1.3.1-.425,0.144-2.219-0.276-3.257,4.33-11.591,10.415-16.082,9.726-6.831.808-9.091-6.737-14.145-9.424-2.493-1.326-27.943-15.774-29.122-19.4-6.481.433-9.572-3.855-13.589-6.65-0.6-2.069-1.67,1.131-1.941,1.112-2.423-.171-12.758-6.095-12.758-6.095-2.9-3.123-27.943-3.046-30.506-8.3-0.607-5.322,2.77-11.765.274-16.652l0.554-.833-0.832-.554a41.481,41.481,0,0,1-9.15,8.333l-2.5-1.663-2.218,3.332c-6.674.871-9.619,6.215-17.747,1.4-5.375-.053-9.73-4.527-18.027-7.2-8.163-2.631-26.988-6.747-34.39-13.294-4.339,5.346-12.326,6.562-17.746,8.618l-3.606-3.605,1.664-2.5c-2.929-2.454-3.655-16.732-3.055-22.477-11.1-1.356-17.8.62-26.622,0.3-5.029-.183-10.373-2.833-12.757-2.487-1.541.223-2.948,2.867-4.437,3.056-5.432.692-10.12-3.089-15.807-3.318-1.115-.044-7.448,2.416-8.874,2.5l-2.5-1.663c-2.945-.128-7.189,1.758-9.7,1.95-4.417.338-8.261-2.346-12.757-2.487-5.536-.174-11.3,2.157-17.194.569q-0.831,1.248-1.663,2.5c6.131,3.4,9.131.9,15.53,1.93,1.652,0.266,4.306,2.441,4.992,3.326,7.034,0.83,9.722,1.123,15.53,1.931,5.561,0.773,19.748.706,21.631,3.59,9.653,0.217,19.975-.676,29.952,9.135-1.948,2.537-4.62,9.39-1.661,13.322,8.694-3.8,20.623.556,31.614,3.028,15.157,3.408,51.464,30.349,67.12,47.126,1.742,1.866,5.323,1.615,6.933,2.214,1.536,0.572,2.5,4.112,4.716,5.547,2.937,1.9,18.983,12.734,19.692,15.526-1.3,7.616-16.018,23.036-13.3,27.208l0.554-.833c4.266-1.177,9.042-5.089,13.033-6.949,3.554,4.835,3.183.9,4.992,3.327,1.134,1.517.059,4.773,0.556,6.382,1.272,4.122,5.633,8.087,7.49,12.205,1.554,3.446,1,9.088,2.5,12.487,1.21,2.735,3.171,2.713,4.716,5.547,0.652,1.2-.1,3.777.278,5,1.931,6.253,6.938,11.383,8.6,17.753-0.37.56-.74,1.11-1.109,1.67,0.345,1.76,2.519,2.66,3.051,4.44,0.778,2.59-.356,6,0.279,8.6,0.074,0.3,2.728.39,3.329,2.22,1.447,4.4,1.9,10.08,3.608,14.42q1.8,1.815,3.605,3.61c2.874,6.58,3.028,13.58,6.938,20.25-5.537,5.14-8.082,14.03-13.862,20.83l1.664,1.11a13.762,13.762,0,0,1,12.2-.29c-0.841,1.94-.865,1.74-0.831,3.05-2.874,10.31,3.906,26.66.008,36.08,0.039,2.88-2.415,12.65-5.267,13.33,0.491,4.08-1.114,7.78-3.047,13.6-0.832.65-1.664,1.29-2.5,1.94l1.665,1.11c-0.024.28-1.386,3.89-1.386,3.89-0.69,1.82-6.253,5.83-7.486,9.44a116.754,116.754,0,0,1-36.316,52.76c-1.3,1.09,1.145,2.49-.554,4.44-0.848.97-5.214,3.18-6.377,4.17-4,3.39-3.417,6.66-6.1,9.16-4.551,4.24-10.1,9.97-14.695,13.06-1.017-.28-2.034-0.56-3.051-0.83-0.476-1.23-.453-1.03-1.941-2.5,4.5-11.66,8.441-32.9,7.756-40.53-0.672-7.47,8.525-21.3,3.322-26.64,4.138-9.46-1.99-17.76,1.1-26.92-0.832-.56-1.664-1.11-2.5-1.66,2.2-14.98-21.824-56.6-38.56-62.97,1.317-4.18,2.849-10.09,3.88-13.05-10.224-4.67-26.1-8.69-37.439-10.51,1.994-17.47-6.011-52.3-17.763-67.152-2.481-3.136-3.9-1.916-5.824-3.88-2.233-2.283-4.63-7.231-6.935-9.431-3.038-2.9-10.463-5.571-12.758-9.7-1.323-1.962-.723-1.518-1.387-3.329,2.9-2.61,4.93-2.577,7.763-4.446l-2.5-1.664a16.779,16.779,0,0,1-14.42.012c0.178-5.105-10.9-15.724-14.979-20.8-15.438-19.21-32.746-21.9-48.537-33.541,1.006-1.26,3.089-5.3,2.217-6.94-3.318.752-6.578,0.136-9.983,0.563-0.329,2.044-.015.878-1.664,2.5-5.991-8.615-6.734-20.111-12.762-27.743-0.629-.8-2.4.253-3.883-1.384-5.956-6.574-10.244-10.682-15.533-16.362-8.075-8.672-27.568-11.2-33.281-18.567-3.6-.356-5.142.992-7.488-1.382-0.877-.888-5.541-0.53-6.655-0.827-5.374-1.437-10.183-5.188-17.75-5.814l-7.487,2.226-11.648-7.762-2.5,1.945q-0.416-.277-0.832-0.554c-1-.327-7.488-4.99-7.488-4.99-1.739-3.978-1.42-5.313.275-9.436,7.759-2.746,13.13-13.123,20.518-16.39,0.693-.307,3.234-0.047,4.159-0.836l1.386-3.886c1.31-1.111,5.23-1.781,6.655-2.781l2.772-4.165,1.11,1.942,4.435-6.664c2.108-.982,6.58-1.154,8.874-2.5,5.994-3.529,3-5.31,9.7-9.166,1.643-.945,6.646-2.023,8.041-3.059q0.971-2.359,1.94-4.72c3.012-2.142,8.977-3.411,11.924-5.282q1.664-2.5,3.326-5l1.665,1.109,2.217-3.332,1.664,1.108q1.11-1.665,2.218-3.332l6.378-.56c6.649-9.291,21.942-12.915,30.5-16.953,2.523-1.19,3.442-4.327,6.1-5.555,3.9,2.466,11.813-4.287,17.469-6.4,2.278-.85,11.848-1.643,11.924-1.675,7.876-3.349,16.662-8.162,24.4-11.4,5.132-2.145,12.045-1.959,17.193-4.176,3.9-1.679,5.855-4.276,9.7-5.558,0.14,0.067,8.2.031,9.983-.563,5.811-1.939,17.369-15.958,21.626-21.664l3.328,2.217,2.772-4.165a14.132,14.132,0,0,1,3.883,1.385c-0.157,3.385-.113,8.933,1.666,11.932l0.555-.833c5.61-3.027,3.606-11.552,9.98-14.994,4.858-2.624,9.065-1.089,13.865-2.787,2.819-1,4.846-3.652,7.763-4.446,1.54-.419,4.3.792,5.824,0.273,3.556-1.212,21.044-9.537,21.074-10.008,5.445-1.369,12-2,17.192-4.176,3.636-1.523,6-4.62,9.705-5.559l1.11,1.942c4.3-1.383,5.561-.141,9.7-1.95,9.736-4.25,35.616-18.161,44.368-12.524-0.333,3.136,6,16.139,6.1,16.092,6.7-3.9,8.4-22.57,16.079-24.158,21.469-2.856,38.118-10.048,60.451-15.034q0.555,0.971,1.109,1.942a78.674,78.674,0,0,1,21.352-5.013c3.045-.324,5.917,1.626,8.875,1.1,4.881-.862,33.448-1.988,34.664.25,6.113-.489,40.324.287,42.707,4.407,2.678,5.436-4.413,9.618-1.384,14.71l1.109-1.666c6.406-1.159,11.174-9.313,18.856-6.676q0.832-1.25,1.663-2.5c5.4,3.376,6.969,3.079,10.816,3.6,4.741,0.641,5.957,7.589,13.313,8.87q0.555-.832,1.109-1.666c3.062,0.223,7.2,6.336,8.876,8.319,1,1.178,2.119-.7,2.773-0.557,3.317,0.72,10.341,7.9,15.531,9.146,9.373,2.255,18.832,10.459,31.617,13.851,2.172,0.576,4.95,7.766,11.926,9.149,7.368,1.461,17.347,7.953,24.958,13.024,0.94,0.626,5.36.136,5.83,0.272,4.37,1.263,8.06,7.72,11.92,9.149,0.65-.37,1.3-0.741,1.94-1.111,2.67,0.8,5.51,3.739,9.99,6.652a6.15,6.15,0,0,0,.55,2.775c-5.33,5.638-9.52,10.62-15.52,12.5-1.89.591-5.33-.588-7.21,0.006-2.7.85-3.35,4.522-6.1,5.555-3.42,1.281-10.009.7-13.868,2.786l-0.831,3.054c-1.124.473-4.571-.707-5.824-0.273-2.851.987-4.122,4.122-6.931,5-1.523.476-4.33-.718-5.824-0.273l-0.831,3.053-3.051-.83c-5.333,1.322-10.654,5.685-16.083,6.118-7.18.573-8.945-2.829-15.807-3.317-3.205-.228-21.043-2.967-21.077-4.424-7.473,3.237-15.745,2.473-26.9,2.519a1.808,1.808,0,0,0-1.663,2.5c-12.83-.739-23.911,2.4-36.05,3.637l-9.152-2.491c-11.75,1.356-50.931,10.671-60.73,6.431-1.678-.267-0.184.033-2.5-1.663q0.277-.416.554-0.833l0.833,0.555c1.559-3.835,8.939-10.816,12.2-14.719l-0.832-.554q-0.277.416-.554,0.833l-0.832-.555c-5.647,3.755-24.845,18.322-32.165,19.453l-2.5-1.663c-2.048.183-13.439,4.916-15.25,6.672l1.664,1.109c2.766-.168,17.1,4.7,20.523,8.864,24.57,5.572,56.256,20.213,72.386,37.409,5.158,5.5,22.715,11.212,25.795,20.794,0.136,5.529-4.774,9.993-1.106,16.1q0.277-.417.554-0.833l0.832,0.554c1.409-5.18,7.257-12.964,10.258-13.607l1.941-1.111c9.3,9.536,21.677,22.823,32.729,30.224,2.611,1.748,4.447,7.817,6.381,10.263,2.479,3.137,3.908,1.916,5.824,3.881C922.822,864.878,926.669,870.988,931.516,875.928ZM964,1067.12c1.521,1.46,1.467,1.26,1.942,2.49C964.423,1068.15,964.477,1068.34,964,1067.12Z"/>
  <path id="Color_Fill_1" data-name="Color Fill 1" class="cls-2" d="M533.716,242.934c-1.748,2.493-2.15,1.867-2.218,3.332-9.522,2.263-11.644,3.981-19.965,4.734q-0.138,1.11-.277,2.22c-4.638.8-7.515-1.285-11.646,3.062-1.934-.841-1.736-0.865-3.051-0.83-1.873.33-6.619,0.963-5.823,3.335-5.685-.1-24.073,3.118-23.293,6.124-1.695.045-4.446-2.039-3.327,1.39-2.949.088-6.457,0.124-10.26,2.784-6.179,4.321-6.709,15.231-9.979,22.21-5.03,10.734-9.716,21.96-12.195,32.757-0.168.734-3.816,4.2-4.158,4.444-0.355,3.566-2.893,8.8-3.88,13.047l0.832,0.554,0.555-.833c3.478-1.648,8.013-6.745,8.039-10.275,0.511-.159,19.687-13.337,19.687-13.337,1.4-4.021,15.59-4.47,14.973-8.06,14.179-1.078,21.807-2.789,36.881-6.69,2.456-.635,15.583,1.982,14.7-2.231,8.55-.169,17.45,2.034,26.067-3.074l2.5,1.663,1.663-2.5c4.883,1.671,25.056-4.638,28.007-7.793l2.5,1.663c2-4.084,27.75-11.145,28.838-10.846,1.83-.3,2.228-0.157,4.437.552l-0.555.833-0.832-.555c-1.69,5.436-18.569,17.673-22.181,18.889-8.827,12.572-18.2,17-28.835,25.278-0.736.574-.613,3.6-1.386,3.887-7.079,2.624-26.493,14.642-28,18.616l-2.5-1.663c-5.893,6.759-33.429,17.409-39.652,18.07-12.054,2.5-23.388,2.72-36.882,3.082-7.35-5.329-30.127-7.378-34.387-2.47-5.645,3.241-7.026,11.063-8.593,18.323-4.988,4.553-13.443,34.507-14.689,41.918-1.44,8.564-9.128,14.7-6.928,23.04q-0.277.417-.554,0.833,0.416,0.278.832,0.554c15.18-20.321,28.933-33.136,52.4-37.229l0.831-3.054,2.5,1.663c3.652-.111,7.234-2.82,10.815-3.616l6.1,1.66,5.268-2.5c2.49,0.039,3.805,1.979,6.1,1.661q0.138-1.11.277-2.221c2.945-.037,4.334,1.3,7.487,1.382,6.734,0.178,13.072-4.134,20.521-1.959l1.663-2.5,2.5,1.663c13.679-5.362,29.232-2.931,38.544-12.8l2.5,1.664,0.555-.833c0.5-2.683.333-3.69,3.882-2.224,1.748-2.492,2.15-1.867,2.218-3.332,1.954-.472,8.1-1.094,7.486-2.226a14.139,14.139,0,0,0,3.05-2.778l2.5,1.664c2.682-3.717,7.384-3.729,11.923-5.283l0.832,0.555-0.555.833c0.031,1.31-.024,1.121-0.831,3.053-3.017,1.349-6.476,4.781-8.041,6.667,0,0,.119,2.291-0.831,3.053-9.051,7.26-25.069,31.848-35.766,33.887,0.019,1.44-1.306,4.649-1.663,6.107,6.409,0.975,12.521-2.083,18.58-.848,8.762,1.786,19.5,7.3,27.457,11.079l-1.109,1.666c0.014,1.428-.289,1.83-1.386,3.887-7.873.891-9.478,6.045-15.528,8.893-9.143,4.305-51.7,30.694-54.346,34.734,0,0-10.3,5.032-11.645,6.669l-2.5-1.663c-2.921,5.864-16.6,8.4-23.292,9.732q-0.138,1.11-.277,2.221c-9.589,1.556-14.5,1.1-23.848,3.349-2.268.545-20.243-1.4-22.74-1.925-2.83-.593-3.941-2.864-6.379-3.048-4.914-.369-15.378,2.057-18.58-2.76-2.99-.226-7.852.771-10.815,0.009-1.316-.339-1.448-2.8-4.161-2.772-3.641.033-2.933,2.862-7.764,0.838-7.676,9.14-11.518,25.95-13.858,38.865-0.216,1.192-1.878-.055-2.773.557-1.071,9.79-5.615,16.526-7.481,27.481l0.832,0.554q0.278-.415.554-0.833c4.4-2.192,9.524-13.292,10.258-13.607,12.843-5.506,26.787-19.663,36.323-23.9,49.192-21.835,104.61-11.4,152.246,7.65,8.322,3.328,16.091,13.921,22.744,19.964l-1.109,1.666c-0.328.946,0.442,0.75-.554,0.833-12.562,2.194-24.854.035-35.5,6.411l-2.5-1.663c-3.709,3.962-4.669,2-8.874,2.5,0,0-2.842,3.3-2.772,4.165-4.306.882-6.089,0.648-9.151,1.117l-0.831,3.054a80.069,80.069,0,0,1-15.806,3.9l-8.319,5.279c-1.624.255-2.29-1.1-1.941,1.112-5.386.382-23.157,4.4-22.46,6.678-8.9-.328-16.164,1.29-23.294,2.516,0.1,1.3.143,0.425-.277,2.221-1.816-.811-17.141-1.309-19.689-1.1-1.63.137-1.617,2.5-1.664,2.5-9.287-.179-17.311-2.531-26.622-3.309-2.658-.222-7.343,1.284-9.984.563l-2.773-3.05a71.586,71.586,0,0,0-8.043-.549c-1.931-.036-5.268,2.5-5.268,2.5-9.3.413-20.774-2.808-24.958,1.407-4.894,5.435-10.975,29.526-14.135,37.477l0.832,0.555,0.555-.833c10.047-1.444,18.545-6.27,29.672-3.077l0.831-3.053c2.635,2.871,3.14,1.991,8.043,4.156,2.521-3.058,1.818-3.529,4.436-3.056,0.763,4.319,26.395,13.075,31.062,14.684,9.6,10.87,24.321,6.55,38.825,6.63a52.1,52.1,0,0,1,11.093,1.379l1.942,2.5c5,1.124,12.963-.942,18.025-0.014,1.064,0.195,2.3,2.945,4.993,3.326,13.118,1.854,29.5,5.8,37.44,14.124,6.844,7.18,14.815,10.556,16.087,15.528,0.137,2.18.546,2.3-.831,3.054-10.978,3.225-27.714-.47-37.436,7.523l0.832,0.554q-0.277.417-.554,0.833c13.543,4.463,23.952,9.791,36.331,15.79l-1.109,1.666c-0.746.667-.862-0.119-0.554,0.833-4.969.951-9.2-.312-14.42,0.012-1.455.09-1.955,1.174-1.664,2.5-4.725.162-8.312-.579-13.034-0.267l-3.881,2.223c-2.548.212-4.927-1.684-7.488-1.382-2.651.313-7.333,4.5-13.311,1.953l-1.663,2.5c-6.583-2.089-10.827,1.979-18.025,3.623-4.784,1.092-11.291-2.012-16.362-2.485-6.474-.6-13.953,1.315-18.3,2.235-3.542.749-18.225,6.465-18.024,7.229-10.818.285-27.226,2.406-37.437,0.308l-4.16-2.772c-10.174-1.9-20.009-2.863-29.673-4.14-3.518-.464-2.5-2.763-4.993-3.326-0.932-.211-18.375-1.284-19.689-1.094q-0.138,1.11-.277,2.22c-5.884.1-7.046,2.685-10.538,1.4-3.6,3.373-7.414,3.834-9.149,8.333-0.79,2.048-.765,7.1-1.107,8.882-0.305,1.585-3.2,2.11-4.159,4.443-1.387,3.392-1.912,8.7-2.216,10.548,0,0-7.106,11.843-7.208,14.437q-0.276.417-.554,0.833c1.809,0.447.915,0.378,2.219,0.276,10.907-2.75,20.769-15.795,32.443-10.849l1.663-2.5c11.647,4.075,26.65,1.81,37.715,1.08,6.822-.451,16.931,2.9,23.017-0.3l-0.832-.554q0.277-.417.554-0.833c5.932,2.642,21.408-1.379,21.075-2.792,7.9-.256,15.728-0.094,23.572-1.129-0.1-1.3-.144-0.425.277-2.221,6.71,3,10.246-.133,15.806-0.29,3.609-.1,9.04.758,10.816,3.6,2.525,0.169,7.563-1.088,9.983-.563,0,0,7.409,4.9,7.489,4.989,17.613,3.7,32.81,16.546,45.763,30.491l-0.555.833c-7.845,1.528-17.383.341-22.738,5.291l-2.5-1.663c-3.193,3.746-12.11,6.125-13.31,5.561-6.013,5.749-11.529,1.88-18.3,9.451l-2.5-1.664c-2.34,3.151-1.779,1.99-3.327,5l0.833,0.554c10.151-.965,37.324,13.967,42.987,20.225,2.431,2.686,9.9,4.526,11.927,9.149,2.388,4.709,1.133,9.04,0,14.431-6.739-1.9-10.388,2.169-17.471-.819-1.461,1.523-1.269,1.469-2.5,1.945a41.4,41.4,0,0,1-13.588.566q-0.138,1.11-.277,2.22l-0.832-.554a19.508,19.508,0,0,1-4.437-.552l-1.663,2.5c-3.159-1.109-1-1.255-3.605,0l0.832,0.555-0.555.833c-8.552-3.778-13.353,5.605-20.243,3.346-7,7.156-15.441,2.421-23.292,9.732l1.664,1.109c0.336,0.984,13.974,5.652,17.75,9.421,6.907,6.895,24.792,22.265,31.621,35.5,3.344,6.479,10.124,10,6.382,17.479l-0.832-.554-0.554.833c-12.957-11.155-45.222-2.1-59.9-3.838l-0.276,2.221-0.832-.555c-41.52,3.433-74.4-12.032-106.77-21.839-2.85-.864-8.812-5.863-12.2-6.929-15.3-4.807-34.619-12.367-55.742-11.889-6.012.136-23,6.823-26.9,9.735-1.2.9,0.747,2.286,0.555,2.774l-1.941,1.112c-0.228.241-4.952,8.734-7.485,9.442,0.4,1.236.031,0.447,1.109,1.942,1.3-.1.425-0.144,2.219,0.275,8.3-11.5,52.664-18.613,77.646-4.779,20.165,11.165,41.844,20.654,60.463,39.083,5.484,5.427,17.908,9.523,24.129,16.077,0.576,0.606,4.561.814,5.269,1.106,2.173,0.895,17.073,10.507,18.306,12.2,4.8,0.632,15.824,5.078,18.859,7.756,3.83,3.384,8.791,3.3,11.648,4.154,2.007,0.59,4.144,3.49,5.27,4.71,10.918,2.71,26.678,12.78,35.223,21.07,2.762,2.68,14.977,9.98,14.977,9.98,0.03,1.31-.024,1.12-0.832,3.05-1.933-.84-1.735-0.87-3.05-0.83-0.278-.19-0.555-0.37-0.832-0.55l-1.664,2.49c-5.811-2.64-12.8-1.18-18.3-1.37-4.677-.16-8.017-2.15-12.756-2.49-10.569-.74-23.58.8-34.11-1.08-1.989-.35-2.237-2.22-2.774-3.05-27.369-1.86-52.93-10.91-77.373-15.48-1.616-.3-6.5-3.57-7.489-4.99-5.616-.49-10.045-1.29-14.144-5.82-16.156-3.42-55.3-27.261-66.286-39.352l-3.6,0c-1.924-1.069-3.746-3.777-5.548-6.1-3.489-.6-17.475-7-20.246-11.085a96.223,96.223,0,0,1-11.093-1.379l-4.16-2.772c-2.745-.237-4.409,2.5-9.151,1.117-1.554,5.489-6.728,8.383-9.426,10.554-1.2.963-3.015,5.265-3.049,6.385-0.032.012-14.916,12.071-14.972,15.276-2.881.913-4.219,1.986-7.764,4.447-7,4.857-16.692,16.237-22.459,13.9-0.555.83-1.109,1.66-1.664,2.5-4.693.1-8.069-1.54-14.144-5.821l0.554-.833c1.888,0.259,17.677-8.533,17.191-11.392,9.219-2.2,36.352-29.924,42.142-41.662,2.772-5.619,8.461-8.222,11.367-15.273-1.679-2.3-.719-2.02-3.052-4.438-4.147-7.488-17.066-9.206-25.793-17.186a48.245,48.245,0,0,0-14.7-8.592c-5.963-7.024-12.536-10.462-18.583-17.192-2.261-2.515-7.756-3.8-11.927-9.148-12.156-15.593-25.856-29.456-39.389-49.091-1.015-1.472-1.349-5.886-2.22-7.491-1.446-2.662-7.789-9.037-9.986-13.869-1.978-4.35-3.225-11.3-5.272-15.537-0.382-.79-2.362-0.107-3.328-2.217-0.777-1.7.113-4.815-.556-6.383-0.294-.689-2.446-0.167-3.328-2.217-6.073-14.106-10.849-31.433-13.875-44.116-0.627-2.627-3.23-3.708-4.161-6.379l1.109-1.666c-0.618-2.694-2.635-5.34-3.052-8.046l1.386-3.887s-3.209-1.809-3.606-3.605c-1.518-6.868-1.607-14.133-2.778-21.089-0.6-3.587-3.293-7.222-3.607-10.821-0.43-4.915,1.513-10.442.551-15.264-1.374-6.89-3.9-12.109-1.113-19.981l0.832,0.554c4.292,17.731,19.075,31.44,29.4,46.046,0.483,0.683.494,3.648,0.833,4.162,0.776,1.179,6.19,4.862,6.934,5.823,2.655,3.43,3.358,7.358,5.826,11.1,1.194,1.809,5.612,2.885,6.656,4.435,3.3,4.894,6.659,9.277,9.432,14.7A96.51,96.51,0,0,1,75.7,739.788c2.591,3.145,3.3,7.122,6.38,10.264,16.917,17.273,27.825,29.523,40.776,48.811,2.237,3.332,6.438,5.747,7.211,7.21,12.637,23.9,25.26,46.306,34.4,74.627l-1.109,1.666c0.9,3.4.982,8.024,2.221,11.1l2.5,1.663c0.916,3.183-.821,7.559,0,10.824l1.664,1.109-0.831,3.053,2.219,0.276c0.471,5.036-1.453,8.81,1.944,13.319l2.217-3.332c3.663-2.392,12.841-18.851,17.188-25.823-21.413-54.862-69.43-103.264-89.051-160.338-10.268-29.868-15.212-63.04-22.482-94.341-1.98-8.522,1.2-22.1.271-31.082-0.181-1.757-2.485-1.427-2.5-1.664-0.641-13.838,5.3-32.219,2.486-45.238,2.934-2,2.424-1.3,4.159-4.444,1.872,0.3,2.988-1.168,3.051.83,2.827,8.63,4.928,19.694,9.157,27.746,2.83,5.387,7.342,7.863,7.768,13.592l3.05,0.83,0.555-.833a18.711,18.711,0,0,1,.276-5.828l-2.219-.276,0.555-.833c-2.308-11.642.155-23.177-.562-35.245-3.938-2.97-1.322-13.75-1.114-19.981,0.274-8.17-.254-18.944,5.264-24.148,4.246,9.225,6.69,21.533,12.209,32.183,12.913,24.92,29.312,50.226,41.612,74.621,1.92,3.806,16.533,25.535,16.645,25.519,1.755,8.762,7.345,14.432,11.1,23.025,3.59,8.224,5.959,18,8.879,26.358,1.692,4.842,5.488,8.142,6.936,13.038,0.443,1.5-.908,4.407-0.276,5.828l3.328,2.218c1.39,3.507.3,11.536,1.667,15.54,0.223,0.652,3.107,4.479,3.607,7.213l-1.386,3.886c0.287,2.045,1.211,2.946,2.774,3.051,0.87,3.253.146,6.613,0.557,9.99,0.611,5.027,3.547,9.992,4.44,14.983,0.593,3.316-1.413,6.955-.83,10.269,0.118,0.669,2.328-.445,2.5,1.663,1.4,17.548,1.36,30.332,3.061,47.732l1.664,1.109,0.554-.833-0.832-.555c2.142-2.914,5.661-10.95,6.93-15.824,0.7-2.679,10.532-13.531,12.2-21.934,1.023-5.164-1.464-10.682-1.667-15.54-0.185-4.4,1.819-8.266,1.106-12.49-0.112-.665-2.375.46-2.5-1.663a222.1,222.1,0,0,0-12.77-63.82c-0.364-1.04.806-3.313,0.554-4.441-0.735-3.3-2.761-5.285-3.884-8.6-0.818-2.413.46-6.257-.279-8.6l-3.329-2.218c-0.591-1.482.628-4.237,0.276-5.828-0.6-2.735-2.875-3.645-4.161-6.38-2.348-5-3.375-13.8-5.273-19.145l-2.5-1.663c-0.886-1.855-.366-5.091-1.388-6.937-0.472-.853-2.654.1-3.328-2.218-7.375-25.328-21.383-49.891-29.134-77.128-0.922-3.238.458-7.424,0-10.824-0.5-3.658-3.028-7.179-3.608-10.82-0.556-3.5,1.147-6.661.83-10.269l-1.664-1.109c-0.3-2.491,1.725-4.988,1.385-7.494-0.078-.572-2.376.386-2.5-1.663-0.333-5.662-.553-11.9-0.559-17.206-0.006-6.574,3.329-13.485,2.492-19.984-0.41-3.182-3.16-3.891-3.329-5.826-1.263-14.461-2.2-28.053-2.782-42.736-0.345-8.63-3.119-17.922.271-27.475l3.329,2.217c1.185,9.416,9.7,21.84,14.7,30.239l1.663-2.5c-2.256-7.73,7.788-34.622,10.529-41.082,1.212-2.855,6.181-4.608,8.04-10.275l2.5,1.663c-2.741,39.919,4.157,72.4,12.5,109.335,1.17,5.177,7.232,8.653,8.877,11.926,2.862,5.7,4.771,11.612,7.491,15.813l3.05,0.83c1.552,2.562,4.506,6.515,5.271,8.322s-0.5,4.524.556,6.383c0.6,1.059,6.631,6.8,7.767,9.984,5.492,15.4,15.324,34.931,21.364,52.713,0.829,2.44.082,9.014,0.834,11.378,3.672,11.531,9.3,25.821,9.714,37.735,0.151,4.318-1.466,8.09-1.106,12.49,1.119,13.676,3.692,26.128,1.672,40.794l2.5,1.664,0.555-.833c-0.455-4.782,3.9-8.9,5.82-14.159,4.947-13.512,12.686-26.434,14.412-39.7,1.809,0.447.915,0.378,2.219,0.276-2.621-3.944-.663-9.918-3.054-15.262-3.172-7.091-5.81-13.167-8.323-19.975-1.021-.868-2.621.217-3.329-2.217-0.49-1.687.558-4.791-.556-6.383-6.822-9.754-16.383-29.915-18.589-42.446-5.546-4.55-5.4-12.238-7.491-19.421-0.9-.854-2.723.192-3.328-2.218-0.656-2.606.859-6.065-.279-8.6-9.415-20.982-10.531-40.25-16.1-62.43-1.517-6.045,1.182-13.4-.281-19.426-0.263-1.083-3.135-4.175-3.329-5.826-0.747-6.331,1.165-12.534.55-18.872-0.171-1.765-2.854-13.273-3.608-14.428-0.662-1.015-2.7-.97-3.606-3.605q0.417-1.527.832-3.054c-0.546-1.865-3.248-1.893-3.328-2.217-4.665-18.9-12.848-42.389-11.383-60.491-1.68-1.085-.8.7-1.664-1.109-2.951-11.344,1.6-21.417-.284-30.25l1.941-1.112c3.9,10.594,11.275,23.605,19.973,31.345l0.555-.833c-1.962-4.982-3.282-22.717-1.115-27.2l1.664,1.109c0.917,3.516,2.355,5,4.438,7.767l3.051,0.83c3.857,5.5,4.93,11.914,8.046,18.588l4.438,4.159c1.531,4.327,8.277,27.222,10.544,27.467q0.832,5.965,1.666,11.932c1.516,2.827,22.468,25.792,22.468,25.792A225.147,225.147,0,0,1,336.6,490.365l2.219,0.275c2.051,10.88,5.366,23.984,4.167,35.243,1.68,1.084.8-.7,1.664,1.108,1.244,6.966-1.183,22.214,1.947,27.751l0.555-.833,0.832,0.555c3.4-12.522,9.554-26.72,13.025-39.419,1.566-5.727,6.241-9.513,5.543-15.546-0.292-2.528-3.372-3.888-4.161-6.38-7.9-24.945-19-35.361-33.012-56.866-25.212-38.69-48.852-81.335-54.657-125.4-2.516-19.091-11.949-40.4-5-61.052a2.842,2.842,0,0,0,1.387-.278c2.062,3.793.756,7.545,2.22,11.1,4.952,12.018,9.546,23.514,13.6,35.512q2.5,3.466,4.993,6.934c0.382,1.158-.374,3.847.279,4.995,12.708,22.355,25.177,46.587,39.393,70.738l3.328,2.217c1.712,2.892,2.792,8.607,4.44,11.375,0.939,1.578,5.206,4.408,6.657,8.043a264.956,264.956,0,0,0,14.7,30.239c1.581,2.749.5,7.568,1.389,10.545,1,3.367,4.114,5.767,4.716,9.154,1.772,9.963,1.212,20.492,5.275,29.968q0.555-.832,1.109-1.666c-0.034-1,.653-4.045.831-6.661,1.809,0.447.915,0.378,2.218,0.276-1.195-7.948,4.492-12.78,6.1-19.987,0.736-3.308-1.667-22.189-3.056-26.084C365.3,386.965,339.786,362.071,320.757,324.7c-0.618-1.215.909-3.269,0.554-4.441l-4.438-4.159c-1.191-2.422-1.653-6.424-2.5-8.879-0.775-2.253-4.243-3.677-4.438-4.159-0.968-2.393.322-6.9-1.111-9.157-0.565-.89-2.688.149-3.329-2.218-9.209-34.033-17.277-57.633-15.272-94.346l0.832,0.554,0.555-.833c6.837,21.1,20.805,40.576,33.012,56.867,4.675,6.239,10.31,19.859,16.089,22.744,6.076,3.033,10.243,18.8,16.366,20.524a418.213,418.213,0,0,1,30.8,71.021c1.9,5.846-.2,12.534.836,18.594l2.219,0.275a108.093,108.093,0,0,1,.836,22.2q0.417,0.276.832,0.554l0.555-.833c1.235-.4.447-0.031,1.941-1.112-0.4-5.072,1.7-7.16,1.939-11.935,1.809,0.447.915,0.378,2.218,0.276-0.618-13.653,10.738-22.524,8.867-34.975-0.521-3.464-15.872-32.9-19.7-33.565-1.906-4.524-7.167-18.387-11.1-19.418-2.379-4.692-8.3-21.209-13.039-21.914-1.44-3.621-2.113-8.576-3.885-12.208L355.965,270c-0.356-1.171,1.165-3.223.553-4.441l-3.328-2.217c-1.749-3.026-7.073-16.025-8.324-19.975-11.092-35.035-19.988-84.845-10.286-123.49l1.664,1.108c-0.909,11.353,5.362,27.411,9.437,39.956,0.838,2.58.129,9.285,0.834,11.378l2.5,1.663c0.355,0.813.345,5.9,0.556,6.383l3.051,0.83-0.276,5.828c2.152,6.29,6.633,11.318,8.6,17.755,0.674,2.2-.422,4.928,0,7.216,6.312,4.731,19.842,37.869,22.195,46.051l4.715,5.547c0.875,2.533,2.968,11.81,4.163,13.6,0.67,1,2.427-.183,3.328,2.218,1.578,4.2,1.738,10.13,3.608,14.428,0.681,1.565,3.318,2.163,3.328,2.218,2.467,13.52,6.97,25.212,9.991,35.515,1.334,4.549-.229,8.814,3.331,13.041a2.855,2.855,0,0,0-.278-1.388c12.653-16.724,6.554-43.358-4.45-61.884-2.967-4.994-6.176-18.04-9.989-24.692-0.438-.764-3.715-1.617-4.437-4.159-0.346-1.215,1.2-3.21.553-4.441-0.457-.865-2.507.051-3.328-2.217l1.109-1.667-3.884-4.992c-0.706-1.692-.007-4.691-0.556-6.382l-3.605-3.6c-0.386-1.093.72-3.2,0.553-4.441-0.612-4.557-3.2-4.458-4.438-7.767-0.577-1.542.728-4.247,0.276-5.829-4.135-14.474-12.877-32.241-11.657-47.447l-3.051-.83c3.564-7.7.653-18.06-1.392-24.976,0,0,3.547,1.837,2.219.276l-0.832-.555c2.229-7.3-.819-13.835-0.559-20.814,0.491-13.182,5.578-27.806,7.479-38.3,1.193-6.587.176-11.62,4.711-16.1,1.181,3.947,3.08,23.98,6.106,23.307,0.334,4.22-.4,10.419,1.389,14.153,18.154,37.993,34.881,90.616,38.021,135.956,0.129,1.868,2.98,4.4,3.329,5.826,0.71,2.9-.926,7.239-0.83,10.269,0.467,14.794,6.217,31.8.842,47.456l0.832,0.554,0.555-.833c4.673-3.276,3.633-14.456,8.87-16.936-0.758-3.1,1.83-8.332,3.047-13.6,1.81,0.447.916,0.378,2.219,0.276-1.853-8.452,4.77-11.916,7.483-20.265,1.923-5.916,8.263-14.2,10.256-24.431,1.624-8.34-1.116-16.795-.006-25.254l-2.218-.276q0.276-.417.554-0.833c-1.213-5.368-.228-10.918-1.113-16.373l-2.218-.276c-0.513-3.023-.442-18.838-3.609-18.036-0.347-16.344-4.523-32.57-6.388-46.342-1.01-7.457,2.186-17.171,2.213-24.979,0.04-11.367-1.266-24.14,2.489-34.415-2.658-1.3-1.95.668-1.942-2.5,3.775-2.193,6.339-21.486,9.145-29.98,3.179-9.625,10.2-21.815,14.415-25.266,2.511,11.534-.547,24.579,2.226,36.354,8.919,37.863,13.343,82.182,4.186,125.438-2.986,14.107-1.048,26.884-7.2,39.691l0.832,0.555c1.3-.1.424-0.144,2.218,0.276,1.515-4.839,5.741-6.789,8.317-12.5,3.165-7.012,14.212-41.553,18.016-43.308-1.413-5.433,4.342-11.882,7.483-20.265,4.114-10.978,17.279-29.78,23.008-43.589,3.963-9.553,11.748-12.9,11.92-19.714,3.774-5.08,18.409-16.591,18.3-20.274,6.066-5.94,17.463-14.777,17.744-15.833C589.065,18.237,613.83-.173,622.96.585l-0.555.833,0.832,0.554c-7.729,8.017-17.187,30.431-19.68,42.2-0.333,1.571-3.4,2.093-4.159,4.444-2.862,8.824-6.589,15.357-8.314,23.319-0.315,1.451-1.722-.36-2.773.557-3.016,10.682-8.7,16.017-11.642,24.709-4.944,3.959-17.221,21.513-20.238,28.6-1.98,4.652-8.263,6.84-8.04,10.275-2.189.659-23.852,20.558-25.23,25.274-15.522,9.2-37.368,38.238-42.7,49.711-5.827,12.552-12.37,20.851-14.691,31.094l2.219,0.276c12.376-12.183,21.42-21.088,38.263-28.615l0.831-3.054a90.1,90.1,0,0,0,15.806-3.9q1.8-1.806,3.605-3.611c1.5-.563,2.27,1.529,3.882,1.384,6.58-8.262,26.287-3.184,35.772-8.631l-0.832-.555q0.277-.415.554-0.833c11.154,4.975,35.076-10.176,41.6-8.358l-2.217,3.332c-0.909,3.517-6.888,8.948-12.477,13.331-2.946,8.5-29.281,26.321-37.431,29.169C548.54,234.472,540.285,245.273,533.716,242.934ZM311.925,522.022c-0.332,7.813,3.238,16.734,5.552,24.14,1.2,3.826-.175,8.159.279,12.211,0.217,1.934,1.146,6.407,3.329,5.825a94.886,94.886,0,0,0,2.778,21.09c1.764,7.641-2.96,17.961,1.392,24.976q0.278-.417.554-0.833c1.221-.477,1.025-0.454,2.5-1.945-1.494-8.259,7.29-21.473,7.757-33.309C336.7,558.069,321.4,530.269,311.925,522.022Zm8.9,123.769c-7.012,12.241-13.593,33.3-16.629,43.029-0.583,1.869-4.32,6.489-4.158,8.051,0.614,1.9.068,0.818,1.664,1.109,1.695-.842,5.269-4.44,5.268-6.109,2.344-.663,28.2-16.216,30.223-18.341C329.057,666.051,330.624,654.1,320.825,645.791Zm-51.294,39.171c-0.7,10,1.114,20.81,1.116,30.8,0,11.048-3.315,22.257-5.262,34.973,1.809,0.447.915,0.378,2.219,0.275l0.832,0.555c2.754-11.022,9.591-25.069,15.245-31.928-1.822-4.6-2.256-9.79-3.608-14.428-1.826-6.263-6.876-11.5-7.214-18.033Zm31.916,119.865c-8.245-5.406-24.327-21.169-35.777-20.231-1.221.477-1.025,0.455-2.5,1.945-1.272.464-8.66,18.468-9.424,21.377l1.11,1.942c7.623-7.747,22.707-5.573,33.553-5.3C293.986,804.7,298.23,807.983,301.447,804.827Zm-122.3-23.77c-3.686,5.518,5.132,19.4,6.661,26.082a364.5,364.5,0,0,1,8.053,51.058l2.5,5.271c0.492,6.821-3.684,17.892-.272,23.868l0.554-.833c1.221-.478,1.025-0.455,2.5-1.945,0.772-8.474,13.711-22.467,16.909-30.819L220.2,849.3c1.811-6.442-7.857-18.17-11.653-25.8C201.106,808.528,188.353,796.378,179.147,781.057Zm84.039,59.6c-12.837.054-19.87-7.2-29.948,8.9-0.113,6.041-5.327,10.51-7.762,15.27-3.161,6.178-9.057,20.635-15.246,28.319l1.664,1.109L213,892.6c3.913-1.2,10.234-9.415,16.359-11.946,7.839-3.24,14.075-4.9,20.242-6.955,2.082-.691,2.813-3.157,4.991-3.889,1.868-.628,5.319.707,7.21-0.006,4.035-1.521,7.259-3.684,11.369-4.449,5.982-1.113,13.309,3.677,18.858.54l-1.942-2.5C286.778,855.942,271.416,848.347,263.186,840.658Z"/>
  <path id="Color_Fill_3" data-name="Color Fill 3" class="cls-2" d="M109,992s-87.934,22.33-36,156,9.5,149.54-10,206H86s44.207-72.25,25-140-79.269-160.32,0-213Z"/>
  <path id="Color_Fill_4" data-name="Color Fill 4" class="cls-2" d="M119,1000s44.084,95.66-39,173-135.872,94.68-112,142l-22,2s-37.584-66.88,45-93,142.478-122.49,109-210l-4-9,13-8Z"/>
</svg>
