<svg xmlns="http://www.w3.org/2000/svg" width="1920" height="589" viewBox="0 0 1920 589">
  <defs>
    <style>
      .cls-1 {
        fill: #54413a;
      }

      .cls-1, .cls-2, .cls-3, .cls-4, .cls-5 {
        fill-rule: evenodd;
      }

      .cls-2 {
        fill: #aab044;
      }

      .cls-3 {
        fill: #919a3d;
      }

      .cls-4 {
        fill: #4c4a4b;
      }

      .cls-5 {
        fill: #fff;
      }
    </style>
  </defs>
  <path class="cls-1" d="M1481.86,181.549h8v62.06h-8v-62.06Z"/>
  <path class="cls-2" d="M1485.86,46.314c27.06,0,49,31.932,49,71.322s-21.94,71.323-49,71.323-48.99-31.932-48.99-71.323S1458.8,46.314,1485.86,46.314Z"/>
  <path class="cls-3" d="M1485.86,188.959s-48.6-4.1-48.99-71.323S1487.32,46.3,1487.32,46.3Z"/>
  <path class="cls-1" d="M1269.81,86.982h5.14V126.9h-5.14V86.982Z"/>
  <path class="cls-2" d="M1272.38,0c17.4,0,31.5,20.539,31.5,45.874s-14.1,45.874-31.5,45.874-31.5-20.539-31.5-45.874S1254.98,0,1272.38,0Z"/>
  <path class="cls-3" d="M1273.94,91.7s-31.8-2.635-32.06-45.841S1274.89,0.008,1274.89.008Z"/>
  <path id="Color_Fill_1" data-name="Color Fill 1" class="cls-4" d="M-69.01,628.937s406.467-403.854,984.92-564.1H989.9S1715.34,299.417,2067.82,766.025-69.01,628.937-69.01,628.937Z"/>
  <path class="cls-5" d="M927.908,458.282h56L988,576H923Zm8-145.424-5,85.217,48,0.926-3-86.143h-40Zm4-84.291-3,51.871h38l-4-52.8Zm5-62.06-2,31.493h25l-2-31.493h-21Zm4-49.092-3,31.493h18l-3-31.493h-12Zm2-24.083-2,15.747h13l-2-15.747h-9Zm3-16.673-2,11.115h7l-2-11.115h-3ZM955,65l-1.094,7.954h3L956,65h-1Z"/>
  <path id="Color_Fill_2" data-name="Color Fill 2" class="cls-5" d="M-20.014,617.822S372.829,267.078,922.909,68.544c0,0-558.524,221.371-918.926,551.13Z"/>
  <path id="Color_Fill_3" data-name="Color Fill 3" class="cls-5" d="M1870.83,619.674s-388.2-351.7-883.927-551.13c0,0,403.087,161.043,855.927,548.351Z"/>
  <path class="cls-1" d="M405.556,148.948h7v54.325h-7V148.948Z"/>
  <path class="cls-2" d="M409.057,30.567c23.688,0,42.89,27.952,42.89,62.434s-19.2,62.433-42.89,62.433S366.168,127.482,366.168,93,385.37,30.567,409.057,30.567Z"/>
  <path class="cls-3" d="M408.7,155.613s-42.4-3.593-42.742-62.51,44.01-62.525,44.01-62.525Z"/>
  <path class="cls-1" d="M646.594,92.153h3.674v28.262h-3.674V92.153Z"/>
  <path class="cls-2" d="M648.431,30.567c12.425,0,22.5,14.542,22.5,32.48s-10.073,32.48-22.5,32.48-22.5-14.542-22.5-32.48S636.006,30.567,648.431,30.567Z"/>
  <path class="cls-3" d="M648.275,96.332s-22.162-1.89-22.342-32.876,23-32.883,23-32.883Z"/>
</svg>
