<svg xmlns="http://www.w3.org/2000/svg" width="315" height="254" viewBox="0 0 315 254">
  <defs>
    <style>
      .cls-1, .cls-10, .cls-2, .cls-3, .cls-4, .cls-5, .cls-6, .cls-8 {
        fill-rule: evenodd;
      }

      .cls-2 {
        fill: #181818;
      }

      .cls-3, .cls-9 {
        fill: #c78129;
      }

      .cls-4 {
        fill: #cdc2e2;
      }

      .cls-5 {
        fill: #f6a031;
      }

      .cls-6, .cls-7 {
        fill: #233332;
      }

      .cls-8 {
        fill: #fff;
      }

      .cls-10 {
        fill: #b81e26;
      }
    </style>
  </defs>
  <path id="Color_Fill_8" data-name="Color Fill 8" class="cls-1" d="M13,238s-34.834,13.378,8,16H292s51.433-1.184,2-21l-12-36L28,189Z"/>
  <path id="Color_Fill_2" data-name="Color Fill 2" class="cls-2" d="M7,159s-10.227,62.841-1,85l39,1s4.659-25.353-3-42l227-3s-3.222,37.965,1,48h38s9.443-48.194-5-91Z"/>
  <path id="Color_Fill_6" data-name="Color Fill 6" class="cls-3" d="M47,52L19,50S18.129,70.591,43,73,47,52,47,52Zm219-1,29-1s1.186,18.205-20,22S266,51,266,51Z"/>
  <path id="Color_Fill_7" data-name="Color Fill 7" class="cls-4" d="M24,53l28,2c3.064,5.033,6.6,7.011,7,15a18.042,18.042,0,0,0-4,3C38.048,73.561,24.829,68.462,24,53Zm267,0c-0.3,5.092-1.883,6.947-3,11-7.545,4.844-11.539,8.063-25,8-2.231-3.543-3.1-5.373-3-12a11.725,11.725,0,0,0,2-5c3.127-1.078,8.414-1.065,13-1C277.981,52.04,286.279,52.871,291,53Z"/>
  <path id="Color_Fill_1" data-name="Color Fill 1" class="cls-5" d="M16,214a90.459,90.459,0,0,1-7-21c-2.374-11.9-1.926-44.309,0-51s0.139-31.28,3-36c3.456-5.7,9.636-24.785,15-30,4.852-4.717,20-33,20-33S63.751,13.072,84,2c0,0,64.614-5.654,153,0,0,0,21.335,21.063,24,31,0,0,21.31,23.222,26,36,1.345,15.167,12.753,13.879,15,37,3.025,21.566,6.24,30.638,5,50s-5,41-5,41l-4,16-54,2s4.889-10.468-19-10H80s-6.534-1.1-12,9H16Z"/>
  <path id="Color_Fill_5" data-name="Color Fill 5" class="cls-6" d="M37,89S30.609,71.877,65,37c0,0,12.376-11,19,0h18s-1.738-7.221,12-6h87s9.682-2.416,10,7h21s-2.752-12.539,14-2,37.4,48.078,30,54ZM246,18s17.972,21.65,28,37c3.133,4.8,3.7,12.636,3.061,17.6A138.817,138.817,0,0,0,247,32M68,30c-0.446-2.38,0-14,0-14L36,63l1,11S38.7,60.492,68,30Z"/>
  <ellipse class="cls-7" cx="230.5" cy="215" rx="11.5" ry="12"/>
  <circle cx="230.5" cy="215.5" r="8.5"/>
  <path id="Color_Fill_4" data-name="Color Fill 4" class="cls-8" d="M266,117s-3.413,10.206,0,18,30-1,30-1,5.007-5.277-3-20S266,117,266,117ZM47,113s5.411,17.486,3,25-31,1-31,1-8.429-23.222,6-29S47,113,47,113Z"/>
  <rect class="cls-9" x="63" y="107" width="187" height="56" rx="10" ry="10"/>
  <path id="Color_Fill_3" data-name="Color Fill 3" class="cls-10" d="M296,120H267c-1.588,2.95-2.075,5.721-2,11,10.273,1.249,19.5,1.021,32,1a21.509,21.509,0,0,1,1,7c0.877,1.295.894,2.467,1,5-9.58,3.212-26.492,1.083-38,1a2.834,2.834,0,0,1-1,1V136c2.672-4.293,4.992-40.516,5-46,6.965,0.8,7.66-.794,13-3,1.621,5.276,3.992,3.772,7,7C288.988,98.281,295.821,110.355,296,120ZM53,145H15V132c7.412,0.267,33-1,33-1a34.244,34.244,0,0,0,1-7c-0.682-.771-1.311-2.232-2-3-5.76-3.593-23.28-.765-30-2v-1c1.955-3.126.985-7.667,3-11,3.527-5.836,10.367-15.3,17-18,2.15,1.438,7.308,1.113,11,1v2C50.9,96.668,53,136.069,53,145Z"/>
  <path id="UPLOAD" class="cls-1" d="M74.889,136.342a40.844,40.844,0,0,0,.665,8.537,9.258,9.258,0,0,0,1.9,3.729,10.447,10.447,0,0,0,3.936,2.892,18.633,18.633,0,0,0,7.309,1.113,17.238,17.238,0,0,0,6.472-1.021,10.259,10.259,0,0,0,3.959-2.743,9.48,9.48,0,0,0,2.031-4.222,45.442,45.442,0,0,0,.55-8.56V118.4H94.923v18.612a37.882,37.882,0,0,1-.3,5.714,4.672,4.672,0,0,1-1.767,2.9,6.845,6.845,0,0,1-4.36,1.182,7.233,7.233,0,0,1-4.487-1.251,5.443,5.443,0,0,1-2.077-3.316,37.756,37.756,0,0,1-.252-5.623V118.4H74.889v17.946Zm35.14,15.7V139.348h4.43a38.818,38.818,0,0,0,7.045-.481,9.859,9.859,0,0,0,3.523-1.595,9.234,9.234,0,0,0,2.857-3.317,10.983,10.983,0,0,0,1.124-5.209,10.448,10.448,0,0,0-1.95-6.552,8.827,8.827,0,0,0-4.843-3.293,39.489,39.489,0,0,0-8.078-.5h-10.9v33.643h6.793Zm3.282-27.952a32.624,32.624,0,0,1,4.888.23,4.7,4.7,0,0,1,2.731,1.491,4.349,4.349,0,0,1,1.079,3.03,4.52,4.52,0,0,1-.769,2.616,4.459,4.459,0,0,1-2.123,1.652,17.563,17.563,0,0,1-5.37.528h-3.718v-9.547h3.282Zm39.5,27.952v-5.668h-16.89v-27.7h-6.793v33.368h23.683Zm2.255-4q4.428,4.578,11.933,4.578,7.413,0,11.842-4.6t4.429-12.749q0-8.214-4.463-12.828t-11.9-4.613a18.476,18.476,0,0,0-7.252,1.331,13.1,13.1,0,0,0-4.349,3.029,15.837,15.837,0,0,0-3.133,4.613,21.4,21.4,0,0,0-1.537,8.629Q150.638,143.457,155.067,148.035Zm5.14-21.527a9.4,9.4,0,0,1,13.506-.034q2.535,2.846,2.536,8.629,0,5.851-2.6,8.778a9.073,9.073,0,0,1-13.368-.023q-2.639-2.949-2.639-8.663Q157.637,129.389,160.207,126.508ZM199.8,118.4h-7.183l-13.1,33.643h7.206L189.5,144.4h13.448l2.938,7.642h7.39Zm-8.215,20.333,4.543-12.485,4.636,12.485h-9.179Zm19.627,13.31h12.782a20.569,20.569,0,0,0,6.013-.711,11.951,11.951,0,0,0,4.773-2.685,14.825,14.825,0,0,0,3.6-5.944,22.1,22.1,0,0,0,1.033-7.16,24.841,24.841,0,0,0-1.1-7.952,14.717,14.717,0,0,0-3.213-5.45,11.259,11.259,0,0,0-5.072-3.1,24.267,24.267,0,0,0-6.4-.642H211.212v33.643Zm9.845-27.952a30.688,30.688,0,0,1,5.576.322,6.469,6.469,0,0,1,3.145,1.583,7.7,7.7,0,0,1,1.927,3.259,20.1,20.1,0,0,1,.689,5.99,21.932,21.932,0,0,1-.689,6.161,7.128,7.128,0,0,1-1.778,3.248,6.277,6.277,0,0,1-2.743,1.4,18.524,18.524,0,0,1-4.108.321h-5.071V124.087h3.052Z"/>
  <rect class="cls-9" x="102" y="181" width="111" height="19" rx="9.5" ry="9.5"/>
</svg>
