<svg xmlns="http://www.w3.org/2000/svg" width="308" height="540" viewBox="0 0 616 1080">
  <defs>
    <style>
      .cls-1 {
        fill: #89b459;
      }

      .cls-1, .cls-2 {
        fill-rule: evenodd;
      }

      .cls-2 {
        fill: #65ab5c;
      }
    </style>
  </defs>
  <path id="Color_Fill_3" data-name="Color Fill 3" class="cls-1" d="M616,0H0C0.618,27.292,33.915,37.772,58,26c2.467,10.2,21.629,28.627,38,24,4.27-1.207,19.733-11.362,21-10,8.607,5.8,13.629,14.557,25,18,13.609,4.12,29.478-11.245,30-10,5.123,4.964,7.672,8.856,18,9,4.034-5.076,9.769-6.738,13-13,2.316,1.615,2.352,1.461,3,5-25.3,24.51,3.1,68.276,24,77,5.749,2.4,12.756-.235,20,2,1.828,0.564,4.886,3.421,7,4,4.056,1.112,9.891.436,13,1v1h-1c-8.383,12.508-17.568,24.132-22,41-8.748,33.292,16.709,66.951,43,68-0.733,5-2.971,8.785-4,13-2.429,9.944,1.653,20.358,4,26,10.061,24.185,22.684,30.671,52,36v2c-13.025,13.841,9.209,49.307,18,55l16,6v9c1.142,1.69,1.066,4.9,1,8h-2c-4.355-5.562-12.875-7.142-23-7-7.551,6.791-14.761,7.408-15,22q2.5,5,5,10c-22.624,1.429-38.381,31.8-28,56,4.459,10.394,18.819,20.17,28,26v1h-1c-3.707,4.36-10.97,3.895-16,7-9.554,5.9-30.03,28.688-26,47,1.654,7.516,4.07,14.674,8,20,1.563,2.118,7.52,4.256,7,8-0.093.669-3.55,3.306-4,4-3.757,5.8-7.919,13.049-10,20-7.18,23.982,14.636,42.2,28,50-3.71,6.264-8.948,13.3-11,21-3.65,13.7,8.308,25.934,15,30l5,1v24c2.718,4.376,1.9,11.145,4,16,2.24,5.184,7.341,8.18,11,12,12.015,1,19.863-1.574,30-3v1c-17.084,10.875-18.906,54.183,4,60v1c-28.206,1.369-32.8,19.13-32,47-41.809-.469-71.535,3.554-82,34-3.288,9.567-1.307,25.962-3,35-19.264,1.045-48.466,26.617-42,52q4,10.5,8,21a45.346,45.346,0,0,0-36,35c-2.223,9.94,3.087,23.17,5,31H616V0Z"/>
  <path id="Color_Fill_4" data-name="Color Fill 4" class="cls-2" d="M521,0h-9c-3.234,7.635-7.474,12.305-8,23,1.575,1.949,1.508,4.786,3,7,4.516,6.7,16.873,10.413,19,19,1.115,4.5-3.16,6.94-4,10-1.664,6.061,1.124,12.027,2,16,12.52,8.252,18.688,17.359,40,18a10.931,10.931,0,0,1,2-3V88c-15.061-6.283-37.151-6.242-37-28,2.566-3.25,4.361-9.18,5-14-6.114-3.839-24.908-19.567-22-31C513.56,8.865,519.114,6.139,521,0ZM375,126c-0.428-3.968-1.638-6.137-3-9-4.471,1.586-7.806.06-12-1-4.249-8.771-12.586-25.328-7-40,2.553-6.7,9.788-9.621,12-17-2.542-1.372-3.5-1.917-8-2-1.889,1.572-2.066,1.889-4,1-1.767-2.388-1.994-5.777-2-10,3.817-2.97,5.048-9.381,9-12,4.653-3.083,8.561-2.186,13-6V28a8.892,8.892,0,0,1-3-3c-6.875,1.439-10.981,1.4-17,0-2.913-4.954-3.452-7.26-3-14,1.951-1.332,2.335-3.792,4-5l10-3a11.564,11.564,0,0,0,2-3H348c-3.379,6.69-7.7,9.807-8,20,3.663,4.612,5.919,9.874,10,14-2.749,7.823-7.764,11-8,23,4.262,2.766,6.6,7.37,7,14-6.131,4.817-3.54,14.127-6,23C337.912,112.354,356.507,126.348,375,126ZM178,0c1.424,9.755,7.981,17.306,20,17,4.62-4.467,9.626-8.3,14-13,5.3,1.522,9.544,2.76,14-1a11.564,11.564,0,0,0,2-3H178ZM147,4c-2.076.372-1.924,0.242-3,1-3.631,3.933-3.453,6.524-11,7C126.022-.725,123.907-0.638,104,0V2c4.739,3.781,5.195,7.782,14,8,2.007-1.75,5.239-2.872,7-2,4.626,5,5.342,9.651,15,10C142.943,13.434,146.365,11.125,147,4ZM285,5c-13.264-.277-26.512,8.029-27,20-5.277,8.129,5.293,14.266,6,22-4.861,4.444-13.71,18.893-7,28,2.7,10.227,13.673,14.27,27,14,2.82-2.318,4.589-2,6-6h-1c-1.121-3.364-1.133-3.314-5-4-2.727,1.915-7.381,2.04-12,2-4.15-6.707-7.145-7.871-7-20,2.866-3.925,2.925-10.363,7-13,8.046-5.207,14.118-1.125,18-12h-1c-1.3-2.468.429-.681-2-2-6.006-5.271-13.269,2.794-18,1-2.068-2.12-3.279-9.791-1-13C272.75,9.964,290.654,16.683,285,5ZM449,125c-0.548,7.948-2.9,12.328-3,22,12.116,7.286,23.26,12.81,42,9v-4a2.834,2.834,0,0,1-1-1c-13.212-1.017-32.306,2.8-35-13,4.244-2.94,6.58-9.351,7-16-12.585-5.219-29.906-6-30-24,2.97-3.688,9.165-13.964,10-19-6.418-6.485-7.062-27.877,1-33l18-3a10.931,10.931,0,0,1,2-3,2.84,2.84,0,0,0-1-1c-0.74-.872-1.26-1.128-2-2-16.4-.413-21.163,5.364-29,13q-0.5,5.5-1,11c0.689,3.23,5.26,18.749,4,22l-4,3c-3.728,5.415-4.934,11.873-5,21C431.8,113.641,433.39,123.053,449,125Zm86-9a23.074,23.074,0,0,0-13,17c4.282,4.458,7.478,9.79,12,14-1.233,7.595-1.692,14.138,0,22,12.788,7.362,23.759,11.908,45,12a18.068,18.068,0,0,1,3-4v-1h-1c-3.031-2.522-30-4.594-36-7-5.057-7.894-4.292-14.682-4-27-5.463-2.494-10.472-5.385-11-13,2.582-1.7,3.843-3.961,6-6A20.14,20.14,0,0,0,535,116ZM320,205c0.1-12.925,8.153-11.031,10-21h-2c-4.861-2.526-6.993,2.159-11,3-10.754,2.257-12.1-9.669-12-19,5.488-3.509,12.15-9.907,14-17a6.1,6.1,0,0,1-2-2c-9.116,3.332-29.745,17.552-19,32,2.756,10.092,10.688,8.81,13,13v10c0.881,2.917,3.574,5.237,5,8,3.926,0.072,6.5.373,8,3,3.8,5.476,4.32,9.274,13,10a94.137,94.137,0,0,1,9-7l-1-3c-5.174.121-8.858,0.9-12,0-0.25-4.391-.407-9.471-4-11C326.41,202.689,324.569,204.585,320,205Zm205,16c0.709,14.768,7.2,17.768,15,25a79.016,79.016,0,0,0,20-2c4.239-5.916,6.626-8.791,1-15-1.754.631-.971,0.193-2,1-2.306,2.5-2.643,5.4-6,7-1.69,1.142-4.9,1.066-8,1-10.5-8.528-10.694-7.635-10-25h-2c-2.1-1.307-18.733.27-24,0-2.231-3.544-3.1-5.373-3-12,1.375-2.191-.05-5.8,1-9,1.69-5.147,5.571-6.305,6-14a6.1,6.1,0,0,1-2-2h-1v1c-8.643,5.607-12.161,16.489-12,31,3.472,3.88,3.414,9.024,9,11C510.518,221.773,518.642,221.157,525,221ZM417,252c-0.075,4.166.247,7.689,2,10,2.277,6.9,6.965,6.767,14,9,0.049,11.791,4.574,21.532,7,32-15.811,3.626-17.024,23.485-12,39,1.837,5.673.02,10.537,5,13a2.834,2.834,0,0,0,1,1v-4c-5.649-8.447-.891-28.4,1-36,8.027-5.38,12.093-8.128,27-8,5.663-8.452,13.978-11.342,15-25h-2c-1.18-.8-1.681-0.773-4-1-3.328,7.238-8.436,17.854-19,18-8.349-8.089-10.661-22.991-11-39-2.091-1.121-1.832-1.434-5-2-2.014,1.891-4.433,2.569-8,3a2.834,2.834,0,0,0-1-1q-0.5-5-1-10c0.894-2.848,5.778-6.347,4-9-2.244-1.9-14.97.333-22,0-3.636-5.6-6.062-7.887-6-18,3.432-4.494,8.564-18.057,10-24l-7-1c-6.08,12.767-13.5,25.894-9,44C402.316,246.97,407.189,251.252,417,252Zm199,35h-3c-4.161-6.253-15.145-14.477-13-26,1.146-6.155,3.778-9.979,4-18-6.475-1.28-10.483-4.77-11-12-0.251-.968-0.784-0.379,0-1,2.816-7.65,12.188-7.3,15-15a2.834,2.834,0,0,1-1-1l-9-1c-7.6,7.183-13.126,10.568-13,26,13.859,9.472,4.058,18.7,9,34,4.028,12.465,10.713,18.722,22,24V287Zm-235,4q-0.5,10.5-1,21c5.5,3.677,7.219,6.933,17,7l11-3v-2c0.877-1.3.894-2.467,1-5-6.913-.845-11.886.4-19,1l-1-3c-3.968-4.511.68-13.855,1-22-4.238-2.366-9.411-3.085-15-5-1.5-3.314-2.051-6.478-2-12,2.421-1.244,3.176-2.38,5-4-0.631-1.754-.193-0.971-1-2-1.3-2.467.429-.681-2-2-2.53-2.311-3.449-1.656-7-1-2.58,5.313-4.895,7.663-5,16C368.385,282.2,368.1,291.023,381,291Zm136-19h-4v1h-1c-0.2,6.787-2.6,15.121-8,17-3.519,1.614-6.969-2.961-13-1-8.9,2.9-16.74,15.239-18,26a10.665,10.665,0,0,1,5,4h1c1.024-3.58,3.386-5.37,5-8,8.038-13.1,7.535-18.05,29-15C515.35,286.6,522.385,280.974,517,272Zm34,107v-5c-5.594-2.532-7.184-5-11-9-0.5-13.275,3.626-22.728,15-24l14,24,3-1a15.7,15.7,0,0,0,1-5c-8.817-7.5-7.172-24.313-23-25-5.656,5.162-11.418,6.5-14,15q-0.5,11-1,22l-3,1a31.323,31.323,0,0,0-9,15c-4.572,18.418,6.153,36.718,21,37,1.734-1.833,3.53-2.808,5-5a6.1,6.1,0,0,1-2-2,44.275,44.275,0,0,1-9,1c-6.782-10.061-17.75-29.508-2-40C540.814,374.378,543.883,378.529,551,379ZM410,345c-31.443-.391-33.6,23.545-33,55,3.605,0.867,5.986,2.523,9,4v-6c-2.237-2.513-1.983-6.045-2-11-0.058-16.9,5.469-31.043,17-36,4.57-1.965,13.8.431,18-2h-2C415.107,347.317,411.864,346.72,410,345Zm107,10c-9.124-.414-18.583.644-21,7-3.469,3.7-1.17,8.587,0,13-8.593,2.128-6.515,7.957-12,12-9.266,6.83-22.443,4.184-23,20,3.715,3.211,8.72,14.025,14,12,2.189-.9,1.443-0.862,3-2-4.253-5.79-9.6-5.712-10-16,7.751-4.507,13.5-8.674,26-9,0.631-1.754.193-.971,1-2-1.169-3.438-2.777-3.585-4-7,3.731-.823,13.01-2.613,16-5,0.752-1.073.6-.946,1-3-5.127-2.2-7.865-3.564-8-11h1v-1c4.84-.55,9.761-3.63,16-2,2.9,0.758,5.355,3.176,8,2,0.872-.74,1.128-1.26,2-2v-1h-1C523.59,357.807,519.408,357.213,517,355Zm-66,17c-6.4.031-9.061,1.767-14,3-2.37,4.121-6.686,8.147-8,13q0.5,7.5,1,15h-1a129.762,129.762,0,0,1-9,10q0.5,5,1,10a17.263,17.263,0,0,1,5,3c1.754-.631.971-0.193,2-1,0.872-.74,1.128-1.26,2-2-1.86-5.125-4.154-5.522-3-12,4.638-1.73,8.586-3.281,12-6-2.761-5.3-4.988-7.125-5-16,3.19-3.423,3.961-7.249,9-9,2.226-1.791,4.8-2,9-2,2.154,3.429,5.853,7.58,10,9,0.961-1.766,1.257-1.68,2-4h-1C460.9,376.807,455.8,375.506,451,372Zm-72,72c-0.513-4.156-.758-6.1,0-10,5.721-2.782,12.156-3.029,20-2a14.124,14.124,0,0,0,1-4c-4.592-2.208-6.765-3.913-14-4-3.826,2.9-8.247,2.947-11,7-2.755,3.663.3,8.953-2,14-3.837,8.436-16.6,5.852-18,23,3.8,4.239,3.885,9.87,10,12,2.069,1.664,4.155,1.91,8,2a14.124,14.124,0,0,0,1-4c-10.6-3.764-13.053-7.831-10-20,7.213-4.337,12.132-6.11,25-6a18.068,18.068,0,0,1,3-4,2.834,2.834,0,0,0-1-1c-1.231-1.8-2.592-2.481-4-4Zm142-11c-9.786.029-22.488,4.542-25,12-0.976,1.515-1.417,6.271-2,8-7.263,2.657-8.417,5.161-13,10-1.007,10.715.5,16.04,5,23h1v-1c1.8-1.231,2.481-2.592,4-4-2.116-5.865-4.987-6.48-5-16,3.671-2.478,4.412-5.1,10-6,2.326,4.787,5.131,6.74,11,8v-2c0.8-1.18.773-1.681,1-4-4.342-2.709-7.531-6.316-8-13,6.966-4.48,10.008-8.944,22-9,2.615,2.549,19.8,14.154,20,14,0.872-.74,1.128-1.26,2-2C536.578,438.384,527.647,441.193,521,433Zm-96,56a19.857,19.857,0,0,1,2-8c5.605-2.542,13.813-3.82,22-4v-4c-7.2-1.38-11.547-4.83-12-13,2.2-1.664,2.026-2.836,5-4,2.815-1.7,10.21-.253,13-2,0.8-1.021.355-.274,1-2-3.846-2.413-6.82-3.141-14-3-1.55,1.428-3.874,2.118-6,3-3.655,6.333-3.182,10.717-3,20-11.624,2.622-13.819,9.088-13,22-8.253,4.531-25.739,22.763-15,38,1.831,5.558,7.772,7.894,15,8l1-3c-8.373-2.3-13.325-6.562-13-18,4.389-6.151,4.7-13.942,10-19,4.332-4.137,11.47-3.927,15-9l-3-1C428.705,489.123,427.533,489.106,425,489Zm173-18c-2.689.221-6.248,0.731-8,2-6.338,2.285-9.224,11.176-11,18v7l-12,4c-8.631,5.922-8.046,19.371-2,27,1.754-.631.971-0.193,2-1,2.961-3.426.755-11.006,1-17,4.607-2.408,14.968-4.922,17-10,2.562-3.236,2.154-10.055,2-16,2.515-1.96,2.522-3.722,6-5,4.115-2.524,10.2,1.174,13,0,1.624-1.35,1.121-.64,2-3h-1C605.077,473.234,601.108,473.441,598,471ZM505,615c-21.089-.767-31.163,7.09-36,22-3.453,10.642,2.164,27.292,10,30v1c1.01,0.99.988-.985,1-1,0.872-.74,1.128-1.26,2-2-1.486-3.987-4.8-6.857-6-11-5.2-17.956,5.934-34.092,22-35,2.591,2.827,6.817,4.835,9,8,5.644,8.185,7.408,16.615,21,14a25.766,25.766,0,0,0,2-5c-30.451.052-15.984-32.9-14-52-5.546-2.49-9.967-4.662-10-13,5.054-3.357,6.91-8.763,11-13v-1h-1c-10.054-8.481-16.8-2.7-15-22,2.342-1.372,4.838-5.019,7-6,6.246-2.836,8.381,2.7,10-5h-2c-1.69-1.142-4.9-1.066-8-1-2.577,2.983-7.758,3.807-10,7-8.388,11.944-.661,22.865,8,31-2.033,5.756-10.015,13.948-4,22,3.447,4.615,7.042,1.606,8,10C505.865,597.347,504.959,606.667,505,615Zm-48,1-20-3c-1.731-3.626-2.87-5.254-3-11,4.551-4.535,16.98-17.244,17-22-5.458-.909-9.369-2.11-11-7,5.4-3.08,12.614-7.835,16-13-5.27-3.236-11.363-6.949-13-14,4.382-2.845,7.621-8.261,13-10,4-1.292,9.123.81,12-1,0.872-.74,1.128-1.26,2-2v-1h-1c-2.5-2.626-4.564-3.063-10-3-10.388,6.571-20.977,4.961-22,21,3.829,2.609,4.894,6.762,8,10-3.127,7.955-10.766,5.971-11,18,2.968,1.853,5.764,4.362,7,8-7.871,4.815-13.01,12.258-13,25,8.867,5.976,11.539,10.123,28,10v-2C456.752,617.927,456.6,618.054,457,616Zm-95-51v-4c-4.126-1.415-10.282-1.875-12-6-1.238-1.838-1.089-5.7-1-9,6.607-5.07,7.492-5.973,18-8l1-3h-2c-1.992-1.337-6.507-1.1-10-1-5.629,6.985-13.088,7.62-14,20C349.054,559.97,347.564,565.223,362,565Zm243,7c-5.173-.007-9.652,1.143-12,4-12.6,5.791-4.676,31.586-4,45-7.375,1.766-13.13,7.484-13,17,2.166,2.925,10.6,18.758,9,24-1.246,4.09-3.694,5.34-4,12l7,4c0.069-9.284,3.764-13.065,5-21-5.594-3.958-9.414-14.252-10-23,5.933-3.67,10.129-8.369,15-13-0.764-4.093-3.05-6.591-4-10-2.657-9.533.246-20.574,2-29a22.116,22.116,0,0,0,11-5ZM379,646a96.607,96.607,0,0,1-27-3c-2.8-4.714-4.923-7.064-5-15,4.815-4.28,11.791-8.139,12-17-3.566-2.459-4.126-5.776-4-12,3.347-1.976,4.747-3.552,10-4,1.793,2.788,3.308,4.009,7,5,0.257-3.2.994-3.191,0-5-1.448-4.1-4.461-5.861-10-6-1.3.877-2.467,0.894-5,1-2.179,3.29-6.116,7.247-9,10,0,8.145,2.872,9.577,4,16-6.961,4.2-11.06,9.655-11,21,9.261,6.671,9.9,15.114,27,15,4.569-.031,7.543-0.085,10-2C378.8,648.82,378.773,648.319,379,646Zm33,17c-12.713,1.332-16.182,8.108-23,15q-0.5,4-1,8c2.6,1.958,11.71,16.3,10,18-6.5,8.117-7.256,7.13-6,21,9.03,5.325,14.908,12.268,28,14a10.925,10.925,0,0,1,2-3v-1h-1c-6.661-4.819-18.947-3.588-22-12-2.093-2.275-2.113-5.344-2-10,4.541-2.7,8.112-5.5,9-12-6.777-4.342-10.882-11.985-11-23,2.558-1.5,3.737-4.543,6-6,2.824-1.818,11.467-1.2,13-4C415.258,665.7,412.505,664.055,412,663Zm182,18c-2.076.372-1.924,0.242-3,1,2.147,1.686,3.627,4.616,5,7h1v-1c1.829-1.568,1.395-.882,2-4C596.16,683.285,595.51,682.917,594,681Zm-58,20c-4.534.48-7.2,1.973-11,3-2.373,3.687-4.493,5.046-5,11,4.771,3.154,9.02,10.232,10,17-4.469,3.034-6.8,8.708-7,16,7.31,4.9,9.644,11.561,21,13a14.124,14.124,0,0,0,1-4c-7.21-3.1-14.762-5.732-16-15,4.105-2.811,6.774-8.335,7-15-3.967-3.993-8.389-9.893-9-17l11-5Q537,703,536,701ZM478,840v-4c-5.488-1.952-12.914-3.567-15-9-1.664-2.069-1.91-4.155-2-8,5.082-3.259,8.158-8.466,9-16-7.12-4-13.694-9.085-14-20,4.266-3.963,8.726-8.031,13-12-0.343-8.759-1.672-11.976,0-20,5.449-3.259,8.859-5.9,18-6,1.651,2.431,2.7,3.11,6,4v-2c0.752-1.073.6-.946,1-3-3.711-2.539-3.608-4.643-10-5-7.305-3.4-17.04,7.933-21,12-0.2,7.336-.2,11.664,0,19-5.083,2.98-7.931,7.129-12,11q-0.5,5-1,10c3.7,3.655,12.639,11.994,13,18-5.662,3.509-8.188,7.379-8,17C461.71,833.179,463.687,839.973,478,840Zm-66-61c-5.435.4-11.106,1.869-13,6-3.506,4.077.395,9.587-1,13-4.019,4.054-8.585,5.1-9,13,3.443,2.455,8.455,10.322,12,9,2.189-.9,1.443-0.862,3-2-1.764-2.281-3.822-2.154-6-4-1.322-1.121-1.753-3.75-3-5v-2c5.383-2.29,10.036-4.082,11-11-1.651-2.108-2.371-5.932-3-9C410.328,786.749,415.151,784.98,412,779Zm174,10c-9.985-.2-16.848,1.274-24,3-7.564,11.215-6.427,12.048-5,28-6.437,3.615-11.744,8.062-12,18,5.849,4.24,6.55,9.739,16,11l2-3c-5.308-2.468-10.478-5.531-11-13,3.737-3.738,10.853-10.292,12-16-4.012-4.915-2.5-12.533-1-18,2.9-1.28,6.584-3.18,10-4,4.631-1.111,10.735,1.088,14-1C588.4,791.38,587.226,791.383,586,789ZM386,899c-4.378.51-6.262,1.977-10,3-2.791,4.376-5.46,6.987-6,14,2.514,2.055,2.927,4.4,3,9-4.658,2.955-9.884,8.619-11,15,8.166,10.32,12.591,18.7,31,19a15.7,15.7,0,0,0,1-5c-12.78-1.036-24.784-5.067-25-19,4.492-2.714,10.347-6.325,11-13-2.167-2.969-2.861-8.206-3-13,5.835-2.514,13.616-4.9,17-10-3.05-3.818-3.99-10.291-4-17h1v-1a105.059,105.059,0,0,1,20,0,10.925,10.925,0,0,1,2-3v-1h-1c-6.087-6.086-15.263-2.979-23-1l-5,6C383.923,889.1,385.223,893.247,386,899Zm230-21c-10.341,6.014-16.056,16.584-16,33a10.925,10.925,0,0,1,3,2c1.754-.631.971-0.193,2-1,2.254-3.669.61-10.471,2-15C609.294,889.526,615.4,887.223,616,878ZM512,908c-7.756.023-11.9,2.474-18,4-5.511,9.213-7.754,17.666-5,31a14.124,14.124,0,0,0,4,1v-2c3.255-5.472-2.564-8.624-1-15,0.409-1.669,2.253-5.123,3-7,6.16-3.828,12.842-5.208,22-7,2.344-6.988,3.381-17.12,5-24,5.064-3.029,7.186-5.04,16-5,2.521,2.474,16.734,11.961,18,11,0.872-.74,1.128-1.26,2-2-5.536-9.56-14.945-14.979-30-15C520.542,888.313,511.954,888.667,512,908Zm-56-9a24.184,24.184,0,0,1,2-11c5.35-2.466,8.711-.947,15,0v-4c-4.592-2.208-6.765-3.913-14-4-3.707,5.371-8.727,5.861-9,15,1.5,1.552.777,1.838,3,3C454.073,898.752,453.946,898.6,456,899ZM272,990c0.465-6.118,2.3-14.828,7-17,2.629-1.863,8.4-2.314,12-3,1.266-3.712.645-14.345,3-18,3.33-3.2,14.489-7.933,23-5,3.439,1.185,4.55,4.958,8,4,0.8-1.18.773-1.681,1-4-10.737-7.248-17.068-7.37-31-4-2.271,3.443-6.469,5.969-8,10q-0.5,6-1,12c-2.7,3.576-12.375,1.028-16,11-2.364,2.959-2.965,7.754-3,13h2C270.073,989.752,269.946,989.6,272,990Zm177-41c-6.919-.047-9.809,1.706-15,3-3.209,5.177-5.993,5.993-6,15,3.182,3.986,5.7,10.512,7,16-5.286,2.949-8.554,6.087-9,14,4.655,3.08,7.592,8.71,9,15-3.912,2.51-5.037,5.43-5,12,3.553,2.48,9.311,9.11,14,7,0.872-.74,1.128-1.26,2-2a2.909,2.909,0,0,0-1-1c-4.076-3.64-7.931-2.94-9-10,2.968-1.85,5.764-4.36,7-8-4.441-4.46-9.61-10.746-10-19,4.94-2.332,7.627-4.979,8-12-4.372-3.109-9.781-14.088-5-20C440.892,955.593,450.239,955.6,449,949Zm114,34c-6.386-.377-9.016-2.955-13,0-4.895,5.715-2.9,17.84,0,24h2c1.372-2.54,1.917-3.5,2-8-1.438-2.15-1.113-7.308-1-11,5.387,0.487,11,4.249,14,3,3.417-3.979,1.013-12.215,4-17,2.135-1.922,5.786-3.3,8-5v-2l-3-1c-1.18-.8-1.681-0.773-4-1-3.051,3.775-6.3,3.447-7,10C563.726,976.828,563.294,980.257,563,983Zm-290,51c-5.172.3-7.644,1.92-12,3-3.14,5.18-5.906,7.24-6,16a45.742,45.742,0,0,1,12,12h1v-1a23.008,23.008,0,0,0,4-3c-3.374-5.54-8.242-7.74-9-16,7.669-3.99,19.121-3.53,19-16-1.891-2.01-2.569-4.43-3-8,3.4-2.17,4.873-4.22,10-5,1.624,1.49,2.023,1.55,5,2,0.736-3.02,1.464-3.53,2-7-3.415-2-4.94-2.99-11-3-6.233,5.59-13.743,6.14-14,18C272.274,1027.83,272.706,1031.26,273,1034Zm318,46h6c0.645-6.31,6.59-10.99,5-15-2.223-6.87-7.183-8.92-8-18,5.185-2.1,13.026-3.48,15-9-9.895-12.09.815-18.67,4-27h-2c-1.18-.8-1.681-0.77-4-1-7.08,10.43-6.654,11.61-6,28-4.7.9-8.7,2.64-11,6-6.708,8.35,3.591,17.52,5,25C591.833,1071.4,591,1074.3,591,1080Zm-255-68c-9.878,1.04-19.263,9.45-19,21,1.815,2.51,2.578,7.31,3,11-3.8,1.9-5.183,4.31-8,7-0.057,6.41-.044,7.28,0,14-6.356,3.63-13.069,8.96-17,15h11c3.95-6.64,11.367-11.11,18-15l-1-3c-3.051-1.94-4.365-3.49-5-8,4.283-2.86,5.846-4.14,14-4,1.121-2.09,1.434-1.83,2-5-5.747-3.24-9.491-7.48-10-16,1.256-1.22,1.672-3.95,3-5,4.493-3.56,9.744-1.99,12-8C337.377,1014.75,336.993,1013.9,336,1012Zm158,2c-3,.33-6,0.67-9,1-4.367,6.33-7.2,6.9-7,19,1.483,2.18,1.83,6.69,2,10-8.489,1.95-14.354,7.76-14,19,6.725,8.88,5.439,17.48,22,17v-2c-7.462-4.15-16.15-9-16-21,0.682-.77,1.311-2.23,2-3,4.506-4.17,10.741-5.5,13-12-3.053-3.95-4.384-15.81-1-20v-1c7.44-.9,11.281.69,19,1a14.134,14.134,0,0,0,1-4h-2C501.471,1015.78,496.914,1015.98,494,1014Zm-118,18h-4c-1.476,10.29,1.491,18.2,10,21v-1C377.9,1047.74,376.117,1040.13,376,1032Zm160,20q6,0.495,12,1c0.631-1.75.193-.97,1-2-2.652-3.84-7.943-5.64-14-6-3.681,3.83-5.136,4.81-5,13,1.766,0.96,1.68,1.26,4,2v-2C535.65,1056.21,535.746,1055.49,536,1052Zm-111,21c-7.894.14-12.6,3.32-18,6v1h18v-7Z"/>
</svg>
