<svg id="visual" viewBox="0 0 960 300" width="960" height="300" xmlns="http://www.w3.org/2000/svg" xmlns:xlink="http://www.w3.org/1999/xlink" version="1.1"><path d="M0 222L22.8 216.7C45.7 211.3 91.3 200.7 137 195.3C182.7 190 228.3 190 274 197.2C319.7 204.3 365.3 218.7 411.2 228C457 237.3 503 241.7 548.8 240.8C594.7 240 640.3 234 686 226.5C731.7 219 777.3 210 823 209.5C868.7 209 914.3 217 937.2 221L960 225L960 0L937.2 0C914.3 0 868.7 0 823 0C777.3 0 731.7 0 686 0C640.3 0 594.7 0 548.8 0C503 0 457 0 411.2 0C365.3 0 319.7 0 274 0C228.3 0 182.7 0 137 0C91.3 0 45.7 0 22.8 0L0 0Z" fill="#40295a"></path><path d="M0 123L22.8 134.3C45.7 145.7 91.3 168.3 137 176.3C182.7 184.3 228.3 177.7 274 167.7C319.7 157.7 365.3 144.3 411.2 138.2C457 132 503 133 548.8 132C594.7 131 640.3 128 686 129C731.7 130 777.3 135 823 140C868.7 145 914.3 150 937.2 152.5L960 155L960 0L937.2 0C914.3 0 868.7 0 823 0C777.3 0 731.7 0 686 0C640.3 0 594.7 0 548.8 0C503 0 457 0 411.2 0C365.3 0 319.7 0 274 0C228.3 0 182.7 0 137 0C91.3 0 45.7 0 22.8 0L0 0Z" fill="#36234b"></path><path d="M0 105L22.8 110.2C45.7 115.3 91.3 125.7 137 131C182.7 136.3 228.3 136.7 274 137.2C319.7 137.7 365.3 138.3 411.2 135.5C457 132.7 503 126.3 548.8 130C594.7 133.7 640.3 147.3 686 143.5C731.7 139.7 777.3 118.3 823 111.5C868.7 104.7 914.3 112.3 937.2 116.2L960 120L960 0L937.2 0C914.3 0 868.7 0 823 0C777.3 0 731.7 0 686 0C640.3 0 594.7 0 548.8 0C503 0 457 0 411.2 0C365.3 0 319.7 0 274 0C228.3 0 182.7 0 137 0C91.3 0 45.7 0 22.8 0L0 0Z" fill="#2c1d3d"></path><path d="M0 103L22.8 105C45.7 107 91.3 111 137 107.8C182.7 104.7 228.3 94.3 274 92.2C319.7 90 365.3 96 411.2 98.5C457 101 503 100 548.8 93.7C594.7 87.3 640.3 75.7 686 76.7C731.7 77.7 777.3 91.3 823 94C868.7 96.7 914.3 88.3 937.2 84.2L960 80L960 0L937.2 0C914.3 0 868.7 0 823 0C777.3 0 731.7 0 686 0C640.3 0 594.7 0 548.8 0C503 0 457 0 411.2 0C365.3 0 319.7 0 274 0C228.3 0 182.7 0 137 0C91.3 0 45.7 0 22.8 0L0 0Z" fill="#23172f"></path><path d="M0 26L22.8 26.8C45.7 27.7 91.3 29.3 137 32.7C182.7 36 228.3 41 274 46C319.7 51 365.3 56 411.2 59.3C457 62.7 503 64.3 548.8 66.2C594.7 68 640.3 70 686 63.2C731.7 56.3 777.3 40.7 823 35.5C868.7 30.3 914.3 35.7 937.2 38.3L960 41L960 0L937.2 0C914.3 0 868.7 0 823 0C777.3 0 731.7 0 686 0C640.3 0 594.7 0 548.8 0C503 0 457 0 411.2 0C365.3 0 319.7 0 274 0C228.3 0 182.7 0 137 0C91.3 0 45.7 0 22.8 0L0 0Z" fill="#1a1122"></path></svg>