<svg xmlns="http://www.w3.org/2000/svg" width="317" height="255" viewBox="0 0 317 255">
  <defs>
    <style>
      .cls-1, .cls-2, .cls-3, .cls-4, .cls-5, .cls-6, .cls-7, .cls-9 {
        fill-rule: evenodd;
      }

      .cls-2 {
        fill: #151515;
      }

      .cls-3 {
        fill: #e46047;
      }

      .cls-4 {
        fill: #ac5848;
      }

      .cls-5 {
        fill: #243433;
      }

      .cls-6 {
        fill: #bababa;
      }

      .cls-7 {
        fill: #d6dadd;
      }

      .cls-8 {
        fill: #c0533e;
      }

      .cls-9 {
        fill: #991b1e;
      }
    </style>
  </defs>
  <path id="Color_Fill_5" data-name="Color Fill 5" class="cls-1" d="M10,240s-22.176,11.578,11,13c0,0,78.6,1.805,146,1,67.5-.237,134.008-2,134-2s32.7-4.813-4-13l-7-37L67,191Z"/>
  <path id="Color_Fill_3" data-name="Color Fill 3" class="cls-2" d="M10,202s-1.573,22.911-1,37c0,0-.774,3.537,6,4H49s4.19-.483,4-6V209H264v28s1.214,6.915,12,6h28s5.766-2,4-7c0,0,1.934-35.039-4-42Z"/>
  <path id="Color_Fill_1" data-name="Color Fill 1" class="cls-3" d="M9,202s-5.623,13.739,23,14l250,1s30.394,4.412,26-26l-1-59s2.445-12.9-20-46h12s19.5-9.476,1-21l-20-1-4,3L257,33a19.754,19.754,0,0,0-15-11S239.486,6.243,219,1H97S78.985,3.733,74,22A32.277,32.277,0,0,0,55,41L41,68l-4-4H17s-18.092,9.937,0,21H30S14.243,103.208,9,132v70Z"/>
  <path id="Color_Fill_7" data-name="Color Fill 7" class="cls-4" d="M48,78s-23.946,23.167-15,40H284s14.457-10.3-24-51Z"/>
  <path id="Color_Fill_6" data-name="Color Fill 6" class="cls-5" d="M47,79H270L244,21S239.5,2.112,215,1H98S79.406,3.3,72,25Z"/>
  <path id="Color_Fill_4" data-name="Color Fill 4" class="cls-6" d="M102,177h85c8.314,0,26.026-2.724,32,1,6.018,2.076,17.791,19.644,18,28-7.976,6.533-28.814,4-43,4H83c-1.511-3.674-2.848-4.1-3-10,6.411-5.121,8.6-18.4,16-22C98.027,177.013,100.616,177.907,102,177Z"/>
  <path id="Color_Fill_2" data-name="Color Fill 2" class="cls-7" d="M20,126v17s-0.67,5.181,13,5l57,1s-2.784-19.885-34-25l-30-1A6.934,6.934,0,0,0,20,126Zm207,23s4.758-20.364,33-26h33s4.631,0.111,5,6v12s-0.541,8.535-16,7Z"/>
  <path id="Color_Fill_8" data-name="Color Fill 8" class="cls-7" d="M90,122s-5.284,11,8,33l118,1s11.606-7.394,12-27c0,0,1-10.873-11-11H100S95.181,116.975,90,122Z"/>
  <rect class="cls-8" x="9" y="162" width="299" height="5"/>
  <path id="STREAM" class="cls-1" d="M105.53,146.962q2.328,2.007,6.672,2.007a12.964,12.964,0,0,0,4.985-.836,6.55,6.55,0,0,0,3.093-2.554,7.21,7.21,0,0,0,.18-7.336,6.429,6.429,0,0,0-2.531-2.328,22.443,22.443,0,0,0-4.992-1.649,12.144,12.144,0,0,1-4.25-1.531,1.758,1.758,0,0,1-.688-1.391,1.667,1.667,0,0,1,.735-1.421,5.283,5.283,0,0,1,3.156-.829,4.658,4.658,0,0,1,2.929.774,3.927,3.927,0,0,1,1.274,2.539l4.625-.2a6.674,6.674,0,0,0-2.289-5.047q-2.18-1.89-6.492-1.891a11.461,11.461,0,0,0-4.508.8,6.217,6.217,0,0,0-2.86,2.32,5.894,5.894,0,0,0-.992,3.274,5.958,5.958,0,0,0,2.11,4.609,12.562,12.562,0,0,0,5.218,2.266q2.89,0.718,3.7,1a3.814,3.814,0,0,1,1.664.992,2.088,2.088,0,0,1,.476,1.383,2.813,2.813,0,0,1-1.133,2.211,5.151,5.151,0,0,1-3.367.945A4.984,4.984,0,0,1,108.9,144a5.489,5.489,0,0,1-1.649-3.328l-4.5.437A8.735,8.735,0,0,0,105.53,146.962Zm25.676,1.6V129.532h6.781v-3.875h-18.2v3.875h6.8v19.031h4.625Zm10.566,0V139h0.938a7.66,7.66,0,0,1,2.328.257,3.557,3.557,0,0,1,1.391.954,32.311,32.311,0,0,1,2.437,3.367l3.344,4.984h5.531l-2.8-4.469a26.1,26.1,0,0,0-2.633-3.718,10.774,10.774,0,0,0-2.476-1.922,7.284,7.284,0,0,0,4.531-2.117,6.117,6.117,0,0,0,1.516-4.258,6.609,6.609,0,0,0-1-3.61,5.269,5.269,0,0,0-2.664-2.195,16.683,16.683,0,0,0-5.336-.617h-9.735v22.906h4.625Zm0-19.031h3.61q2.813,0,3.375.078a2.838,2.838,0,0,1,1.742.9,2.753,2.753,0,0,1,.617,1.868,2.977,2.977,0,0,1-.469,1.718,2.484,2.484,0,0,1-1.3.969,17.642,17.642,0,0,1-4.156.281h-3.422v-5.812Zm32.051,19.031V144.7h-12.8v-6.235h11.5V134.61h-11.5v-5.078h12.359v-3.875H156.4v22.906h17.422Zm11.566-22.906H180.5l-8.922,22.906h4.906l1.891-5.2h9.156l2,5.2h5.031ZM179.8,139.5l3.094-8.5,3.156,8.5H179.8Zm17.614,9.062V130.532l4.531,18.031h4.453l4.547-18.031v18.031h4.3V125.657H208.3l-4.109,15.625-4.156-15.625h-6.922v22.906h4.3Z"/>
  <path class="cls-9" d="M43.5,126c9.113,0,16.5,4.253,16.5,9.5S52.613,145,43.5,145,27,140.747,27,135.5,34.387,126,43.5,126Zm225,0c9.113,0,16.5,4.253,16.5,9.5s-7.387,9.5-16.5,9.5-16.5-4.253-16.5-9.5S259.387,126,268.5,126Z"/>
</svg>
